<svg width="73" height="18" viewBox="0 0 73 18" fill="none" xmlns="http://www.w3.org/2000/svg">
<path d="M16.965 16.0448H12.9539L11.7046 13.0857H5.06321L3.94536 16.0448H0L5.98379 1.11816H10.3237L16.965 16.0448ZM8.21949 4.73474L6.04954 10.5213H10.6525L8.21949 4.73474Z" fill="#202020"/>
<path d="M31.4943 1.18359H34.7163V16.0444H31.034V6.77285L27.0229 11.4415H26.4311L22.42 6.77285V16.0444H18.6719V1.18359H21.8939L26.6941 6.70709L31.4943 1.18359Z" fill="#202020"/>
<path d="M44.1882 1.18359C49.646 1.18359 52.4077 4.6029 52.4077 8.67977C52.4077 12.9539 49.7117 16.1102 43.7279 16.1102H37.5469V1.18359H44.1882ZM41.295 13.3484H43.7279C47.476 13.3484 48.5939 10.784 48.5939 8.61401C48.5939 6.04953 47.213 3.87959 43.6622 3.87959H41.295V13.3484Z" fill="#202020"/>
<path d="M67.5294 4.66867H59.836L55.1016 0H72.1981V17.0965L67.5294 12.3621V4.66867Z" fill="#202020"/>
<path d="M59.7728 12.3624V5.65527L54.9727 10.4555V17.2283H61.7455L66.5457 12.3624H59.7728Z" fill="#202020"/>
</svg>
