<svg width="25" height="22" viewBox="0 0 25 22" fill="none" xmlns="http://www.w3.org/2000/svg">
<path d="M10.0509 5.47576V7.01422H22.5368L20.2307 14.5266H9.51061L4.98462 1H1V2.53846H3.8771L8.40305 16.0651H21.3677L24.6183 5.47576H10.0509Z" fill="white" stroke="white" stroke-width="0.5"/>
<path d="M11.2911 18.207C11.0149 18.207 10.7448 18.289 10.5152 18.4425C10.2855 18.596 10.1065 18.8141 10.0008 19.0693C9.89511 19.3245 9.86748 19.6054 9.92139 19.8763C9.97531 20.1472 10.1084 20.3961 10.3037 20.5914C10.4991 20.7867 10.7479 20.9197 11.0189 20.9735C11.2898 21.0274 11.5706 20.9997 11.8258 20.894C12.081 20.7882 12.2991 20.6092 12.4526 20.3795C12.606 20.1498 12.6879 19.8797 12.6879 19.6035C12.6874 19.2332 12.5401 18.8783 12.2782 18.6165C12.0164 18.3547 11.6614 18.2074 11.2911 18.207Z" fill="white" stroke="white" stroke-width="0.5"/>
<path d="M17.3146 18.207C17.0384 18.207 16.7684 18.2889 16.5387 18.4424C16.309 18.5959 16.13 18.814 16.0243 19.0693C15.9186 19.3245 15.8909 19.6053 15.9448 19.8762C15.9987 20.1472 16.1318 20.396 16.3271 20.5913C16.5225 20.7867 16.7713 20.9197 17.0423 20.9735C17.3132 21.0274 17.594 20.9997 17.8492 20.894C18.1044 20.7883 18.3226 20.6092 18.476 20.3795C18.6294 20.1498 18.7113 19.8798 18.7113 19.6035C18.7108 19.2333 18.5635 18.8783 18.3017 18.6165C18.0399 18.3547 17.6849 18.2075 17.3146 18.207Z" fill="white" stroke="white" stroke-width="0.5"/>
</svg>
