<svg width="25" height="48" viewBox="0 0 25 48" fill="none" xmlns="http://www.w3.org/2000/svg">
<path fill-rule="evenodd" clip-rule="evenodd" d="M24.3966 47.4472C24.3966 47.7596 24.1562 48 23.8437 48H0.552856C0.240387 48 0 47.7596 0 47.4472V8.19641V5.50438V0.552828C0 0.240359 0.240387 0 0.552856 0H23.8437C24.1562 0 24.3966 0.240359 24.3966 0.552828V5.50438V8.19641V35.0984C24.4115 35.1495 24.4195 35.204 24.4195 35.2608C24.4195 35.3177 24.4115 35.3722 24.3966 35.4233V47.4472ZM1.10564 34.708V8.74924H23.315V34.708H20.79L16.5596 29.6845C16.4635 29.5643 16.3193 29.4922 16.1511 29.4922H7.81055C7.66633 29.4922 7.49805 29.5643 7.4019 29.6845L3.17161 34.708H1.10564ZM1.10564 35.8137V46.9184H23.315V35.8137H20.5256C20.3574 35.8137 20.2131 35.7416 20.117 35.6214L15.8866 30.5978H8.05092L3.82055 35.6214C3.72441 35.7416 3.55612 35.8137 3.41191 35.8137H1.10564ZM23.315 7.66761H1.10564V6.0572H23.315V7.66761ZM23.315 4.95154H1.10564V1.10566H23.315V4.95154ZM4.55278 18.1714H19.6955C20.008 18.1714 20.2483 17.931 20.2483 17.6185V14.4698C20.2483 14.1574 20.008 13.917 19.6955 13.917H4.55278C4.24031 13.917 4 14.1574 4 14.4698V17.6185C4 17.931 4.24031 18.1714 4.55278 18.1714ZM19.1427 17.0898H5.10564V15.0467H19.1427V17.0898ZM19.6955 24.3005H4.55286C4.24039 24.3005 4 24.0602 4 23.7477V20.599C4 20.2865 4.24039 20.0461 4.55286 20.0461H19.6955C20.008 20.0461 20.2484 20.2865 20.2484 20.599V23.7477C20.2484 24.0602 20.008 24.3005 19.6955 24.3005ZM5.10571 23.2189H19.1667V21.1758H5.10571V23.2189ZM12.1973 42.3038L12.2093 42.3038H12.1853L12.1973 42.3038ZM14.8052 41.2222C14.111 41.9164 13.1784 42.3007 12.1973 42.3038C11.2162 42.3007 10.2836 41.9164 9.58939 41.2222C8.89235 40.5251 8.50781 39.5877 8.50781 38.6023C8.50781 37.6168 8.89235 36.6794 9.58939 35.9823C9.80572 35.766 10.1422 35.766 10.3586 35.9823C10.5749 36.1986 10.5749 36.5351 10.3586 36.7515C9.87784 37.2322 9.58939 37.9052 9.58939 38.5782C9.58939 39.2512 9.85381 39.9242 10.3586 40.405C10.8393 40.8857 11.5123 41.1741 12.2093 41.1741C12.9064 41.1741 13.5554 40.9097 14.0361 40.405C14.5168 39.9242 14.8052 39.2512 14.8052 38.5782C14.8052 37.9052 14.5408 37.2322 14.0361 36.7515C13.8198 36.5351 13.8198 36.1986 14.0361 35.9823C14.2524 35.766 14.5889 35.766 14.8052 35.9823C15.5023 36.6794 15.8868 37.6168 15.8868 38.6023C15.8868 39.5877 15.5023 40.5251 14.8052 41.2222ZM12.209 37.2803C11.8966 37.2803 11.6562 37.0399 11.6562 36.7274V34.5882C11.6562 34.2757 11.8966 34.0354 12.209 34.0354C12.5215 34.0354 12.7619 34.2757 12.7619 34.5882V36.7274C12.7619 37.0399 12.5215 37.2803 12.209 37.2803Z" fill="url(#paint0_linear_73_320)"/>
<defs>
<linearGradient id="paint0_linear_73_320" x1="-0.591989" y1="-86.88" x2="30.5235" y2="-85.3135" gradientUnits="userSpaceOnUse">
<stop stop-color="#E035CF"/>
<stop offset="1" stop-color="#001BF3"/>
</linearGradient>
</defs>
</svg>
