<svg width="25" height="20" viewBox="0 0 25 20" fill="none" xmlns="http://www.w3.org/2000/svg">
<path d="M15.1172 12.641V12.6294L18.6404 5.40932L22.1522 12.6179L22.1637 12.641C22.4646 13.2196 22.6208 13.8386 22.6208 14.4923H14.6659C14.6659 13.8328 14.8163 13.208 15.1229 12.6352L15.1172 12.641ZM9.02517 12.6179L9.03674 12.641C9.33757 13.2196 9.49378 13.8386 9.49378 14.4923H1.52734C1.52734 13.8386 1.67776 13.2138 1.98438 12.641V12.6294L5.50767 5.40932L9.01938 12.6179H9.02517ZM13.1328 14.4923C13.1328 15.9618 13.7055 17.3445 14.7469 18.3859C15.7883 19.4272 17.171 20 18.6404 20C20.1099 20 21.4926 19.4272 22.534 18.3859C23.5754 17.3445 24.1481 15.9618 24.1481 14.4923C24.1481 13.6014 23.934 12.722 23.5233 11.941L19.7686 4.2291H20.3992C20.7521 4.2291 21.0356 3.94562 21.0356 3.59271V2.5282C21.0356 2.1753 20.7521 1.89181 20.3992 1.89181H15.6031C15.4874 0.838878 13.9138 0 11.9873 0C10.0607 0 8.49291 0.838878 8.37142 1.89181H3.57535C3.22245 1.89181 2.93896 2.1753 2.93896 2.5282V3.59271C2.93896 3.94562 3.22245 4.2291 3.57535 4.2291H4.37952L0.624819 11.941C0.214058 12.722 0 13.6072 0 14.4923C0 15.9618 0.572751 17.3445 1.61412 18.3859C2.65548 19.4272 4.03818 20 5.50767 20C6.97715 20 8.35985 19.4272 9.40121 18.3859C10.4426 17.3445 11.0153 15.9618 11.0153 14.4923C11.0153 13.6014 10.8013 12.722 10.3905 11.941L6.63581 4.2291H17.5123L13.7576 11.941C13.3468 12.722 13.1328 13.6072 13.1328 14.4923Z" fill="#202020"/>
</svg>
