<svg width="48" height="48" viewBox="0 0 48 48" fill="none" xmlns="http://www.w3.org/2000/svg">
<path fill-rule="evenodd" clip-rule="evenodd" d="M0.620796 48H47.3671C47.718 48 47.9879 47.7597 47.9879 47.4473V0.5527C47.9879 0.240309 47.718 0 47.3671 0H0.620796C0.269928 0 0 0.240309 0 0.5527V47.4473C0 47.7597 0.269928 48 0.620796 48ZM46.7734 46.9187H1.24155V1.10538H46.7734V46.9187ZM4.85121 6.70173C3.8174 6.70173 3 5.86026 3 4.8505C3 3.84073 3.84144 2.99927 4.85121 2.99927C5.86098 2.99927 6.70249 3.84073 6.70249 4.8505C6.70249 5.86026 5.86098 6.70173 4.85121 6.70173ZM4.85121 4.08115C4.41845 4.08115 4.08192 4.41774 4.08192 4.8505C4.08192 5.28325 4.41845 5.61984 4.85121 5.61984C5.28397 5.61984 5.62057 5.28325 5.62057 4.8505C5.62057 4.41774 5.28397 4.08115 4.85121 4.08115ZM42.8434 6.70173C41.8096 6.70173 40.9922 5.86026 40.9922 4.8505C40.9922 3.84073 41.8336 2.99927 42.8434 2.99927C43.8532 2.99927 44.6947 3.84073 44.6947 4.8505C44.6947 5.86026 43.8532 6.70173 42.8434 6.70173ZM42.8434 4.08115C42.4106 4.08115 42.0741 4.41774 42.0741 4.8505C42.0741 5.28325 42.4106 5.61984 42.8434 5.61984C43.2762 5.61984 43.6128 5.28325 43.6128 4.8505C43.6128 4.41774 43.2762 4.08115 42.8434 4.08115ZM3 42.8409C3 43.8506 3.8174 44.6921 4.85121 44.6921C5.86098 44.6921 6.70249 43.8506 6.70249 42.8409C6.70249 41.8311 5.86098 40.9896 4.85121 40.9896C3.84144 40.9896 3 41.8311 3 42.8409ZM4.08192 42.8409C4.08192 42.4081 4.41845 42.0715 4.85121 42.0715C5.28397 42.0715 5.62057 42.4081 5.62057 42.8409C5.62057 43.2736 5.28397 43.6102 4.85121 43.6102C4.41845 43.6102 4.08192 43.2736 4.08192 42.8409ZM42.8434 44.6922C41.8096 44.6922 40.9922 43.8507 40.9922 42.841C40.9922 41.8312 41.8336 40.9897 42.8434 40.9897C43.8532 40.9897 44.6947 41.8312 44.6947 42.841C44.6947 43.8507 43.8532 44.6922 42.8434 44.6922ZM42.8434 42.0716C42.4106 42.0716 42.0741 42.4082 42.0741 42.841C42.0741 43.2737 42.4106 43.6103 42.8434 43.6103C43.2762 43.6103 43.6128 43.2737 43.6128 42.841C43.6128 42.4082 43.2762 42.0716 42.8434 42.0716ZM23.9943 29.1755C23.2534 29.1755 22.5482 29.0191 21.9101 28.7375C21.7473 30.4145 21.1493 33.1238 19.0481 34.7084C18.0568 35.4564 16.8763 35.8349 15.5335 35.8349V35.8439C15.4889 35.8439 15.4441 35.8435 15.3992 35.8427C17.7604 37.5606 20.6525 38.5909 23.7786 38.6366C25.5374 37.6289 26.5352 36.3713 26.7381 34.8977C27.0294 32.8246 25.7408 30.6212 24.3665 29.1622C24.2436 29.171 24.1194 29.1755 23.9943 29.1755ZM20.1643 23.9937C20.1643 25.2181 20.7446 26.3119 21.6442 27.014C21.68 27.0362 21.7136 27.0616 21.7447 27.0899C22.3771 27.5511 23.155 27.8237 23.9943 27.8237C26.1031 27.8237 27.8243 26.1024 27.8243 23.9937C27.8243 21.8849 26.1031 20.1637 23.9943 20.1637C21.8855 20.1637 20.1643 21.8849 20.1643 23.9937ZM18.2371 33.636C19.9028 32.3804 20.5483 29.9183 20.611 27.9152C19.9757 27.3662 19.4746 26.6659 19.1644 25.8708C18.0022 26.8293 15.9994 28.1361 13.7224 28.1396C13.4521 28.1396 13.1817 28.1216 12.9114 28.0855C11.6361 27.9092 10.5064 27.3075 9.53239 26.2953C10.0142 29.335 11.4347 32.0664 13.4865 34.1822C15.4434 34.7192 17.0439 34.5287 18.2371 33.636ZM9.35325 23.7842C10.3609 25.5424 11.6183 26.5398 13.0916 26.7428C15.1557 27.034 17.3664 25.746 18.8262 24.3719C18.8171 24.247 18.8125 24.1209 18.8125 23.9937C18.8125 23.2526 18.969 22.5473 19.2506 21.909C17.5743 21.7473 14.8592 21.1507 13.2723 19.0464C12.4968 18.0184 12.1235 16.795 12.1497 15.3939C10.429 17.7576 9.39745 20.6537 9.35325 23.7842ZM13.7134 28.1396H13.7224C13.7194 28.1396 13.7164 28.1396 13.7134 28.1396ZM25.867 28.8253C26.94 30.1253 28.4454 32.4726 28.0809 35.087C27.9051 36.3585 27.3065 37.4852 26.2998 38.4572C29.3449 37.9739 32.0804 36.5487 34.1976 34.4904C34.7304 32.5392 34.5387 30.943 33.648 29.7524C32.3897 28.0833 29.9201 27.4386 27.9148 27.3781C27.365 28.0141 26.6634 28.5154 25.867 28.8253ZM22.1158 19.1643C21.3217 19.4744 20.6221 19.975 20.0736 20.6096C18.069 20.5482 15.602 19.9032 14.3447 18.2353C13.4538 17.0446 13.2622 15.4482 13.7952 13.4967C15.9134 11.4378 18.6506 10.0124 21.6973 9.53001C20.6852 10.504 20.0835 11.6337 19.9072 12.9089C19.5433 15.5191 21.0433 17.863 22.1158 19.1643ZM23.622 18.8251C22.2475 17.3662 20.9586 15.1625 21.2499 13.0891C21.4528 11.6161 22.45 10.3589 24.2076 9.35132C27.3368 9.39588 30.2317 10.4269 32.5947 12.1467C31.1925 12.1212 29.9703 12.4946 28.9431 13.2693C26.8376 14.8572 26.2415 17.5744 26.0802 19.2506C25.4416 18.9686 24.7359 18.8119 23.9943 18.8119C23.8691 18.8119 23.745 18.8164 23.622 18.8251ZM29.7542 14.3417C30.9447 13.451 32.541 13.2594 34.4921 13.7921C36.5512 15.91 37.9768 18.6468 38.4596 21.6932C37.4856 20.6809 36.3558 20.0791 35.0804 19.9028C32.4755 19.5457 30.1263 21.044 28.8234 22.1146C28.5136 21.3212 28.0135 20.6222 27.3796 20.074C27.4389 18.0752 28.0832 15.6014 29.7542 14.3417ZM29.1621 23.6112C29.1714 23.7375 29.1761 23.8651 29.1761 23.9937C29.1761 24.7348 29.0196 25.4401 28.738 26.0783C30.414 26.2395 33.1321 26.8354 34.7204 28.9414C35.4952 29.9686 35.8686 31.1908 35.843 32.5931C37.5604 30.2336 38.591 27.3437 38.6385 24.2198C37.6293 22.4518 36.3688 21.4491 34.8912 21.2455C32.8381 20.9547 30.6227 22.2391 29.1621 23.6112ZM8 23.994C8 32.8166 15.1734 39.99 23.996 39.99C32.8185 39.99 39.9919 32.8166 39.9919 23.994C39.9919 15.1714 32.8185 7.99805 23.996 7.99805C15.1734 7.99805 8 15.1714 8 23.994Z" fill="url(#paint0_linear_73_373)"/>
<defs>
<linearGradient id="paint0_linear_73_373" x1="-1.16335" y1="-86.88" x2="59.544" y2="-80.8739" gradientUnits="userSpaceOnUse">
<stop stop-color="#E035CF"/>
<stop offset="1" stop-color="#001BF3"/>
</linearGradient>
</defs>
</svg>
