<svg width="16" height="14" viewBox="0 0 16 14" fill="none" xmlns="http://www.w3.org/2000/svg">
<path d="M12.8421 13.8947C11.9579 13.8947 11.2105 13.5895 10.6 12.9789C9.98947 12.3684 9.68421 11.6211 9.68421 10.7368C9.68421 9.85263 9.98947 9.10526 10.6 8.49474C11.2105 7.88421 11.9579 7.57895 12.8421 7.57895C13.7263 7.57895 14.4737 7.88421 15.0842 8.49474C15.6947 9.10526 16 9.85263 16 10.7368C16 11.6211 15.6947 12.3684 15.0842 12.9789C14.4737 13.5895 13.7263 13.8947 12.8421 13.8947ZM12.8421 12.2105C13.2491 12.2105 13.5965 12.0667 13.8842 11.7789C14.1719 11.4912 14.3158 11.1439 14.3158 10.7368C14.3158 10.3298 14.1719 9.98246 13.8842 9.69474C13.5965 9.40702 13.2491 9.26316 12.8421 9.26316C12.4351 9.26316 12.0877 9.40702 11.8 9.69474C11.5123 9.98246 11.3684 10.3298 11.3684 10.7368C11.3684 11.1439 11.5123 11.4912 11.8 11.7789C12.0877 12.0667 12.4351 12.2105 12.8421 12.2105ZM1.26316 11.5789V9.89474H8V11.5789H1.26316ZM3.15789 6.31579C2.27368 6.31579 1.52632 6.01053 0.915789 5.4C0.305263 4.78947 0 4.04211 0 3.15789C0 2.27368 0.305263 1.52632 0.915789 0.915789C1.52632 0.305263 2.27368 0 3.15789 0C4.04211 0 4.78947 0.305263 5.4 0.915789C6.01053 1.52632 6.31579 2.27368 6.31579 3.15789C6.31579 4.04211 6.01053 4.78947 5.4 5.4C4.78947 6.01053 4.04211 6.31579 3.15789 6.31579ZM3.15789 4.63158C3.56491 4.63158 3.91228 4.48772 4.2 4.2C4.48772 3.91228 4.63158 3.56491 4.63158 3.15789C4.63158 2.75088 4.48772 2.40351 4.2 2.11579C3.91228 1.82807 3.56491 1.68421 3.15789 1.68421C2.75088 1.68421 2.40351 1.82807 2.11579 2.11579C1.82807 2.40351 1.68421 2.75088 1.68421 3.15789C1.68421 3.56491 1.82807 3.91228 2.11579 4.2C2.40351 4.48772 2.75088 4.63158 3.15789 4.63158ZM8 4V2.31579H14.7368V4H8Z" fill="#FEFEFE"/>
</svg>
