<svg width="20" height="20" viewBox="0 0 20 20" fill="none" xmlns="http://www.w3.org/2000/svg">
<path d="M4.43241 12.0875L3.73624 14.6864L1.19176 14.7402C0.431327 13.3298 0 11.7161 0 10.0012C0 8.343 0.40328 6.77925 1.11812 5.40234H1.11867L3.38398 5.81765L4.37632 8.06937C4.16862 8.67488 4.05542 9.32487 4.05542 10.0012C4.0555 10.7353 4.18847 11.4386 4.43241 12.0875Z" fill="#FBBB00"/>
<path d="M19.8242 8.13281C19.939 8.73773 19.9989 9.36246 19.9989 10.0009C19.9989 10.7169 19.9236 11.4152 19.7802 12.0889C19.2934 14.3812 18.0214 16.3828 16.2594 17.7993L16.2588 17.7987L13.4055 17.6531L13.0017 15.1322C14.1709 14.4465 15.0847 13.3735 15.566 12.0889H10.2188V8.13281H15.644H19.8242Z" fill="#518EF8"/>
<path d="M16.2595 17.7974L16.26 17.798C14.5463 19.1755 12.3694 19.9996 9.99963 19.9996C6.19139 19.9996 2.88043 17.8711 1.19141 14.7387L4.43206 12.0859C5.27655 14.3398 7.45073 15.9442 9.99963 15.9442C11.0952 15.9442 12.1216 15.648 13.0024 15.131L16.2595 17.7974Z" fill="#28B446"/>
<path d="M16.382 2.30218L13.1424 4.95436C12.2309 4.3846 11.1534 4.05546 9.99904 4.05546C7.39245 4.05546 5.17761 5.73346 4.37542 8.06811L1.11773 5.40108H1.11719C2.78148 2.1923 6.13421 0 9.99904 0C12.4254 0 14.6501 0.864295 16.382 2.30218Z" fill="#F14336"/>
</svg>
