<svg width="37" height="48" viewBox="0 0 37 48" fill="none" xmlns="http://www.w3.org/2000/svg">
<path fill-rule="evenodd" clip-rule="evenodd" d="M34.7249 48H1.61062C0.720841 48 0.0234375 47.2786 0.0234375 46.4128V37.8718C0.00816335 37.8202 0 37.765 0 37.7074C0 37.6498 0.00816335 37.5946 0.0234375 37.543V1.58717C0.0234375 0.697394 0.744889 0 1.61062 0H34.7249C35.6147 0 36.312 0.721443 36.312 1.58717V37.537C36.3284 37.5904 36.3372 37.6476 36.3372 37.7074C36.3372 37.7672 36.3284 37.8244 36.312 37.8777V46.4128C36.312 47.3026 35.5906 48 34.7249 48ZM35.2299 38.2605V46.4128C35.2299 46.7014 35.0135 46.9178 34.7249 46.9178H1.61062C1.32204 46.9178 1.10563 46.7014 1.10563 46.4128V38.2605H6.97095L11.1325 42.422C11.1773 42.4888 11.2365 42.5445 11.3062 42.5854C11.3898 42.6388 11.4891 42.6616 11.5885 42.6616L11.6032 42.6614H11.8808H11.881C12.1935 42.6613 12.4338 42.4208 12.4338 42.1083C12.4338 41.7957 12.1934 41.5552 11.8808 41.5552H11.8047L7.66219 37.4127C7.56614 37.2558 7.39347 37.1543 7.19036 37.1543H1.10563V1.58717C1.10563 1.2986 1.32204 1.08217 1.61062 1.08217H34.7249C35.0135 1.08217 35.2299 1.2986 35.2299 1.58717V37.1543H29.1469C28.9243 37.1543 28.7383 37.2762 28.6496 37.4592L24.5536 41.5552H24.4828C24.1702 41.5552 23.9297 41.7957 23.9297 42.1083C23.9297 42.4209 24.1702 42.6614 24.4828 42.6614H24.7519C24.7578 42.6615 24.7638 42.6616 24.7698 42.6616C24.7734 42.6616 24.7772 42.6615 24.781 42.6613C24.9782 42.6582 25.1457 42.5592 25.2407 42.4072L29.3873 38.2605H35.2299ZM20.113 30.9593L18.7108 25.2266C18.6627 24.9861 18.4222 24.8177 18.1817 24.8177C17.9412 24.8177 17.7008 24.9861 17.6527 25.2266L16.2519 30.9534C10.2306 30.0115 5.76969 24.8151 5.76969 18.6856C5.76969 11.8319 11.3488 6.2527 18.2025 6.2527C25.0562 6.2527 30.6354 11.8319 30.6354 18.6856C30.6354 24.8281 26.1326 30.0336 20.113 30.9593ZM20.3723 32.0199C26.8748 30.9643 31.7176 25.3334 31.7176 18.6615C31.7176 11.2066 25.6574 5.14648 18.2025 5.14648C10.7476 5.14648 4.6875 11.2066 4.6875 18.6615C4.6875 25.3197 9.5104 30.9411 15.9927 32.0133L14.9352 36.3368C14.6947 37.3468 14.9112 38.3809 15.5605 39.1985C16.1857 40.0162 17.1476 40.4731 18.1817 40.4731C19.2158 40.4731 20.1537 40.0162 20.8029 39.1985C21.4282 38.3809 21.6687 37.3468 21.4282 36.3368L20.3723 32.0199ZM13.4219 18.6614C13.4219 21.2827 15.5622 23.4229 18.1834 23.4229C20.8047 23.4229 22.9449 21.2827 22.9449 18.6614C22.9449 16.0402 20.8047 13.8999 18.1834 13.8999C15.5622 13.8999 13.4219 16.0402 13.4219 18.6614ZM14.5281 18.6614C14.5281 16.6414 16.1634 15.0061 18.1834 15.0061C20.2035 15.0061 21.8387 16.6173 21.8387 18.6614C21.8387 20.7055 20.2035 22.3408 18.1834 22.3408C16.1634 22.3408 14.5281 20.6815 14.5281 18.6614ZM18.1823 20.6092C17.1001 20.6092 16.2344 19.7434 16.2344 18.6613C16.2344 17.5791 17.1001 16.7134 18.1823 16.7134C19.2644 16.7134 20.1302 17.5791 20.1302 18.6613C20.1302 19.7434 19.2644 20.6092 18.1823 20.6092ZM18.1823 17.8196C17.7013 17.8196 17.3165 18.2044 17.3165 18.6853C17.3165 19.1663 17.7013 19.5511 18.1823 19.5511C18.6632 19.5511 19.048 19.1663 19.048 18.6853C19.048 18.2044 18.6632 17.8196 18.1823 17.8196ZM15.9933 36.6013L18.1817 27.6554L20.3701 36.6013C20.5384 37.2747 20.3941 37.9721 19.9613 38.5252C19.5284 39.0783 18.8791 39.3909 18.1817 39.3909C17.4843 39.3909 16.835 39.0783 16.4021 38.5252C15.9933 37.9721 15.825 37.2747 15.9933 36.6013ZM18.1791 38.6697C17.3374 38.6697 16.6641 37.9964 16.6641 37.1547C16.6641 36.313 17.3374 35.6396 18.1791 35.6396C19.0208 35.6396 19.6941 36.313 19.6941 37.1547C19.6941 37.9964 19.0208 38.6697 18.1791 38.6697ZM18.1791 36.7459C17.9386 36.7459 17.7703 36.9383 17.7703 37.1547C17.7703 37.3711 17.9627 37.5635 18.1791 37.5635C18.3955 37.5635 18.5879 37.3711 18.5879 37.1547C18.5879 36.9383 18.3955 36.7459 18.1791 36.7459ZM3.36719 5.1465C3.36719 6.15652 4.1848 6.9982 5.21886 6.9982C6.22888 6.9982 7.07061 6.15652 7.07061 5.1465C7.07061 4.13648 6.22888 3.2948 5.21886 3.2948C4.20884 3.2948 3.36719 4.13648 3.36719 5.1465ZM4.44931 5.1465C4.44931 4.71363 4.786 4.37696 5.21886 4.37696C5.65173 4.37696 5.98842 4.71363 5.98842 5.1465C5.98842 5.57936 5.65173 5.91603 5.21886 5.91603C4.786 5.91603 4.44931 5.57936 4.44931 5.1465ZM31.1407 6.99832C30.1067 6.99832 29.2891 6.15664 29.2891 5.14662C29.2891 4.1366 30.1307 3.29492 31.1407 3.29492C32.1508 3.29492 32.9925 4.1366 32.9925 5.14662C32.9925 6.15664 32.1508 6.99832 31.1407 6.99832ZM31.1407 4.37708C30.7079 4.37708 30.3713 4.71375 30.3713 5.14662C30.3713 5.57948 30.7079 5.91616 31.1407 5.91616C31.5736 5.91616 31.9103 5.57948 31.9103 5.14662C31.9103 4.71375 31.5736 4.37708 31.1407 4.37708ZM29.2891 42.8058C29.2891 43.8158 30.1067 44.6575 31.1407 44.6575C32.1508 44.6575 32.9925 43.8158 32.9925 42.8058C32.9925 41.7958 32.1508 40.9541 31.1407 40.9541C30.1307 40.9541 29.2891 41.7958 29.2891 42.8058ZM30.3713 42.8058C30.3713 42.3729 30.7079 42.0363 31.1407 42.0363C31.5736 42.0363 31.9103 42.3729 31.9103 42.8058C31.9103 43.2387 31.5736 43.5754 31.1407 43.5754C30.7079 43.5754 30.3713 43.2387 30.3713 42.8058ZM5.21886 44.6575C4.1848 44.6575 3.36719 43.8158 3.36719 42.8058C3.36719 41.7958 4.20884 40.9541 5.21886 40.9541C6.22888 40.9541 7.07061 41.7958 7.07061 42.8058C7.07061 43.8158 6.22888 44.6575 5.21886 44.6575ZM5.21886 42.0363C4.786 42.0363 4.44931 42.3729 4.44931 42.8058C4.44931 43.2387 4.786 43.5754 5.21886 43.5754C5.65173 43.5754 5.98842 43.2387 5.98842 42.8058C5.98842 42.3729 5.65173 42.0363 5.21886 42.0363Z" fill="white"/>
</svg>
