<svg width="50" height="20" viewBox="0 0 50 20" fill="none" xmlns="http://www.w3.org/2000/svg">
<path d="M3.6413 0.217773H0V3.85908H3.6413V0.217773Z" fill="#202020"/>
<path d="M3.53329 19.1304V6.08696H0.109375V19.1304H3.53329ZM26.305 19.2391V16.0326C25.8159 16.0326 25.3811 15.9783 25.055 15.9783C24.6746 15.9239 24.4029 15.8152 24.2398 15.5978C24.0768 15.4348 23.9137 15.163 23.8594 14.837C23.805 14.5109 23.805 14.0761 23.805 13.587V9.02174H26.305V6.08696H23.805V0.97826H20.3811V13.587C20.3811 14.6739 20.4898 15.5435 20.6529 16.25C20.8159 16.9565 21.142 17.5543 21.5768 17.9891C22.0115 18.4239 22.555 18.75 23.2615 18.913C23.9681 19.1304 24.8376 19.1848 25.8702 19.1848H26.305V19.2391ZM45.9789 19.1304V0H42.555V19.1304H45.9789ZM17.0659 7.33696C16.0876 6.30435 14.7833 5.81522 13.0442 5.81522C12.2289 5.81522 11.4681 5.97826 10.8159 6.30435C10.1637 6.63043 9.5659 7.11957 9.13111 7.71739L8.96807 7.93478V7.71739V6.08696H5.5985V19.1304H9.02242V12.1739V12.663C9.02242 12.6087 9.02242 12.5 9.02242 12.4457C9.07677 11.25 9.3485 10.3261 9.94633 9.72826C10.5442 9.13043 11.305 8.80435 12.1202 8.80435C13.0985 8.80435 13.8594 9.13043 14.3485 9.72826C14.8376 10.3261 15.1094 11.1413 15.1094 12.2283V19.1304H18.4789V11.6848C18.4789 9.83696 18.0442 8.36957 17.0659 7.33696ZM40.7616 12.5543C40.7616 11.6304 40.5985 10.7065 40.2724 9.8913C39.9463 9.07609 39.4572 8.36957 38.9137 7.71739C38.3159 7.11957 37.6094 6.63043 36.7942 6.25C35.9789 5.92391 35.055 5.70652 34.0768 5.70652C33.1529 5.70652 32.2289 5.86957 31.4137 6.25C30.5985 6.63043 29.892 7.11957 29.2398 7.71739C28.642 8.31522 28.1529 9.02174 27.7724 9.8913C27.392 10.7065 27.2289 11.6304 27.2289 12.5543C27.2289 13.4783 27.392 14.4022 27.7181 15.2174C28.0442 16.0326 28.5333 16.7391 29.1311 17.3913C29.7289 17.9891 30.4355 18.4783 31.305 18.8587C32.1746 19.2391 33.0985 19.4022 34.0768 19.4022C36.9572 19.4022 38.805 18.0978 39.892 16.8478L37.4463 14.9457C36.9029 15.5435 35.7072 16.413 34.1311 16.413C33.1529 16.413 32.3376 16.1957 31.7398 15.7609C31.142 15.3261 30.7072 14.7283 30.4898 13.9674L30.4355 13.8587H40.7616V12.5543ZM30.5442 11.3587C30.5442 10.3804 31.6311 8.75 34.0224 8.75C36.3594 8.75 37.5007 10.4348 37.5007 11.3587H30.5442Z" fill="#202020"/>
<path d="M49.8913 17.4454C49.837 17.2824 49.7283 17.1737 49.6196 17.065C49.5109 16.9563 49.3478 16.8476 49.2391 16.7933C49.0761 16.7389 48.913 16.6846 48.75 16.6846C48.587 16.6846 48.4239 16.7389 48.2609 16.7933C48.0978 16.8476 47.9891 16.9563 47.8804 17.065C47.7717 17.1737 47.663 17.3367 47.6087 17.4454C47.5543 17.6085 47.5 17.7715 47.5 17.9346C47.5 18.0976 47.5543 18.2607 47.6087 18.4237C47.663 18.5867 47.7717 18.6954 47.8804 18.8041C47.9891 18.9128 48.1522 19.0215 48.2609 19.0759C48.4239 19.1302 48.587 19.1846 48.75 19.1846C48.913 19.1846 49.0761 19.1302 49.2391 19.0759C49.4022 19.0215 49.5109 18.9128 49.6196 18.8041C49.7283 18.6954 49.837 18.5324 49.8913 18.4237C49.9457 18.2607 50 18.0976 50 17.9346C50 17.7715 49.9457 17.6085 49.8913 17.4454ZM49.6739 18.3694C49.6196 18.478 49.5652 18.5867 49.4565 18.6954C49.3478 18.8041 49.2391 18.8585 49.1304 18.9128C49.0217 18.9672 48.8587 19.0215 48.75 19.0215C48.587 19.0215 48.4783 18.9672 48.3696 18.9128C48.2609 18.8585 48.1522 18.8041 48.0435 18.6954C47.9348 18.5867 47.8804 18.478 47.8261 18.3694C47.7717 18.2607 47.7174 18.0976 47.7174 17.9889C47.7174 17.8259 47.7717 17.7172 47.8261 17.6085C47.8804 17.4998 47.9348 17.3911 48.0435 17.2824C48.1522 17.1737 48.2609 17.1194 48.3696 17.065C48.4783 17.0107 48.6413 16.9563 48.75 16.9563C48.913 16.9563 49.0217 17.0107 49.1304 17.065C49.2391 17.1194 49.3478 17.1737 49.4565 17.2824C49.5652 17.3911 49.6196 17.4998 49.6739 17.6085C49.7283 17.7172 49.7826 17.8802 49.7826 17.9889C49.7826 18.0976 49.7283 18.2607 49.6739 18.3694ZM48.9674 18.0433C49.0761 18.0433 49.1304 17.9889 49.2391 17.9346C49.2935 17.8802 49.3478 17.7715 49.3478 17.6628C49.3478 17.4998 49.2935 17.3911 49.2391 17.3367C49.1304 17.2824 49.0217 17.228 48.8587 17.228H48.3152V18.6954H48.587V18.0976H48.8043L49.1848 18.6954H49.4565L48.9674 18.0433ZM48.8043 17.8259C48.75 17.8259 48.6957 17.8259 48.6957 17.8259H48.4783V17.4454H48.6957C48.75 17.4454 48.8043 17.4454 48.8043 17.4454C48.8587 17.4454 48.8587 17.4454 48.913 17.4454C48.9674 17.4454 48.9674 17.4998 48.9674 17.4998C48.9674 17.5541 49.0217 17.5541 49.0217 17.6085C49.0217 17.6628 49.0217 17.7172 48.9674 17.7172C48.9674 17.7715 48.913 17.7715 48.913 17.7715C48.913 17.8259 48.8587 17.8259 48.8043 17.8259Z" fill="#202020"/>
</svg>
