<svg width="48" height="47" viewBox="0 0 48 47" fill="none" xmlns="http://www.w3.org/2000/svg">
<path fill-rule="evenodd" clip-rule="evenodd" d="M47.4482 46.0524H2.52547C2.213 46.0524 1.97266 45.812 1.97266 45.4996V36.6066H0.552829C0.240365 36.6066 0 36.3662 0 36.0538V32.1119C0 31.7994 0.240365 31.5591 0.552829 31.5591H1.97266V28.4103H0.552829C0.240365 28.4103 0 28.1699 0 27.8574V18.099C0 17.7865 0.240365 17.5461 0.552829 17.5461H1.97266V14.4938H0.552829C0.240365 14.4938 0 14.2534 0 13.941V9.99911C0 9.68664 0.240365 9.44629 0.552829 9.44629H1.97266V0.55282C1.97266 0.240356 2.213 0 2.52547 0H47.4482C47.7606 0 48.001 0.240356 48.001 0.55282V45.4755C48.001 45.788 47.7606 46.0283 47.4482 46.0283V46.0524ZM2.52547 35.5007C2.58408 35.5007 2.64016 35.5092 2.69259 35.525H3.96589V32.6647H1.10566V35.525H2.35834C2.41077 35.5092 2.46685 35.5007 2.52547 35.5007ZM3.0783 44.9467V36.6066H4.49468C4.80714 36.6066 5.04751 36.3662 5.04751 36.0538V32.1119C5.04751 31.7994 4.80714 31.5591 4.49468 31.5591H3.0783V28.4103H4.49468C4.80714 28.4103 5.04751 28.1699 5.04751 27.8574V18.099C5.04751 17.7865 4.80714 17.5461 4.49468 17.5461H3.0783V14.4938H4.49468C4.80714 14.4938 5.04751 14.2534 5.04751 13.941V9.99911C5.04751 9.68664 4.80714 9.44629 4.49468 9.44629H3.0783V1.10564H46.9194V44.9467H3.0783ZM2.69164 27.3287C2.63948 27.313 2.58373 27.3047 2.52547 27.3047C2.46721 27.3047 2.41145 27.313 2.3593 27.3287H1.10566V18.6758H3.96589V27.3287H2.69164ZM3.96589 13.4122H2.6925C2.64009 13.3964 2.58405 13.3879 2.52547 13.3879C2.46689 13.3879 2.41084 13.3964 2.35844 13.4122H1.10566V10.5519H3.96589V13.4122ZM8.92002 14.9268H11.082V16.6086C11.082 16.921 11.3224 17.1614 11.6349 17.1614C11.9473 17.1614 12.1877 16.921 12.1877 16.6086V14.9268H13.918V16.6086C13.918 16.921 14.1583 17.1614 14.4708 17.1614C14.7833 17.1614 15.0236 16.921 15.0236 16.6086V14.9268H16.7773V16.6086C16.7773 16.921 17.0177 17.1614 17.3302 17.1614C17.6426 17.1614 17.883 16.921 17.883 16.6086V14.9268H19.6133V16.6086C19.6133 16.921 19.8536 17.1614 20.1661 17.1614C20.4786 17.1614 20.7189 16.921 20.7189 16.6086V14.9268H22.4727V16.6086C22.4727 16.921 22.713 17.1614 23.0255 17.1614C23.3379 17.1614 23.5783 16.921 23.5783 16.6086V14.9268H25.3125V16.6086C25.3125 16.921 25.5528 17.1614 25.8653 17.1614C26.1778 17.1614 26.4181 16.921 26.4181 16.6086V14.9268H28.1719V16.6086C28.1719 16.921 28.4122 17.1614 28.7247 17.1614C29.0372 17.1614 29.2775 16.921 29.2775 16.6086V14.9268H31.0078V16.6086C31.0078 16.921 31.2482 17.1614 31.5606 17.1614C31.8731 17.1614 32.1135 16.921 32.1135 16.6086V14.9268H33.8672V16.6086C33.8672 16.921 34.1076 17.1614 34.42 17.1614C34.7325 17.1614 34.9728 16.921 34.9728 16.6086V14.9268H36.7031V16.6086C36.7031 16.921 36.9435 17.1614 37.2559 17.1614C37.5684 17.1614 37.8088 16.921 37.8088 16.6086V14.9268H39.5391V16.6086C39.5391 16.921 39.7794 17.1614 40.0919 17.1614C40.4043 17.1614 40.6447 16.921 40.6447 16.6086V14.9268H42.7863C43.0988 14.9268 43.3391 14.6865 43.3391 14.374V6.49032C43.3391 6.17786 43.0988 5.9375 42.7863 5.9375H40.6447V4.23031C40.6447 3.91785 40.4043 3.67749 40.0919 3.67749C39.7794 3.67749 39.5391 3.91785 39.5391 4.23031V5.9375H37.8088V4.23031C37.8088 3.91785 37.5684 3.67749 37.2559 3.67749C36.9435 3.67749 36.7031 3.91785 36.7031 4.23031V5.9375H34.9728V4.23031C34.9728 3.91785 34.7325 3.67749 34.42 3.67749C34.1076 3.67749 33.8672 3.91785 33.8672 4.23031V5.9375H32.1135V4.23031C32.1135 3.91785 31.8731 3.67749 31.5606 3.67749C31.2482 3.67749 31.0078 3.91785 31.0078 4.23031V5.9375H29.2775V4.23031C29.2775 3.91785 29.0372 3.67749 28.7247 3.67749C28.4122 3.67749 28.1719 3.91785 28.1719 4.23031V5.9375H26.4181V4.23031C26.4181 3.91785 26.1778 3.67749 25.8653 3.67749C25.5528 3.67749 25.3125 3.91785 25.3125 4.23031V5.9375H23.5783V4.23031C23.5783 3.91785 23.3379 3.67749 23.0255 3.67749C22.713 3.67749 22.4727 3.91785 22.4727 4.23031V5.9375H20.7189V4.23031C20.7189 3.91785 20.4786 3.67749 20.1661 3.67749C19.8536 3.67749 19.6133 3.91785 19.6133 4.23031V5.9375H17.883V4.23031C17.883 3.91785 17.6426 3.67749 17.3302 3.67749C17.0177 3.67749 16.7773 3.91785 16.7773 4.23031V5.9375H15.0236V4.23031C15.0236 3.91785 14.7833 3.67749 14.4708 3.67749C14.1583 3.67749 13.918 3.91785 13.918 4.23031V5.9375H12.1877V4.23031C12.1877 3.91785 11.9473 3.67749 11.6349 3.67749C11.3224 3.67749 11.082 3.91785 11.082 4.23031V5.9375H8.92002C8.60755 5.9375 8.36719 6.17786 8.36719 6.49032V14.374C8.36719 14.6865 8.60755 14.9268 8.92002 14.9268ZM37.4891 13.8452H39.8588C39.9291 13.8138 40.0079 13.7964 40.0919 13.7964C40.1759 13.7964 40.2547 13.8138 40.325 13.8452H42.2335V7.04314H9.47283V13.8452H11.4017C11.4721 13.8138 11.5509 13.7964 11.6349 13.7964C11.7189 13.7964 11.7977 13.8138 11.868 13.8452H14.2377C14.308 13.8138 14.3868 13.7964 14.4708 13.7964C14.5548 13.7964 14.6336 13.8138 14.7039 13.8452H17.0971C17.1674 13.8138 17.2462 13.7964 17.3302 13.7964C17.4142 13.7964 17.493 13.8138 17.5633 13.8452H19.933C20.0033 13.8138 20.0821 13.7964 20.1661 13.7964C20.2501 13.7964 20.3289 13.8138 20.3992 13.8452H22.7924C22.8627 13.8138 22.9415 13.7964 23.0255 13.7964C23.1095 13.7964 23.1883 13.8138 23.2586 13.8452H25.6322C25.7025 13.8138 25.7813 13.7964 25.8653 13.7964C25.9493 13.7964 26.0281 13.8138 26.0984 13.8452H28.4916C28.5619 13.8138 28.6407 13.7964 28.7247 13.7964C28.8087 13.7964 28.8875 13.8138 28.9578 13.8452H31.3275C31.3978 13.8138 31.4766 13.7964 31.5606 13.7964C31.6446 13.7964 31.7234 13.8138 31.7938 13.8452H34.1869C34.2572 13.8138 34.336 13.7964 34.42 13.7964C34.504 13.7964 34.5828 13.8138 34.6531 13.8452H37.0228C37.0931 13.8138 37.1719 13.7964 37.2559 13.7964C37.3399 13.7964 37.4187 13.8138 37.4891 13.8452ZM42.7847 25.0933H39.588C39.2755 25.0933 39.0352 24.853 39.0352 24.5405V19.7574C39.0352 19.445 39.2755 19.2046 39.588 19.2046H42.7847C43.0972 19.2046 43.3375 19.445 43.3375 19.7574V24.5405C43.3375 24.853 43.0972 25.0933 42.7847 25.0933ZM40.1408 24.0117H42.2319V20.3102H40.1408V24.0117ZM32.6387 25.0933H35.8355C36.148 25.0933 36.3883 24.853 36.3883 24.5405V19.7574C36.3883 19.445 36.148 19.2046 35.8355 19.2046H32.6387C32.3263 19.2046 32.0859 19.445 32.0859 19.7574V24.5405C32.0859 24.853 32.3263 25.0933 32.6387 25.0933ZM35.2827 24.0117H33.1916V20.3102H35.2827V24.0117ZM28.3863 33.0255H25.1895C24.8771 33.0255 24.6367 32.7851 24.6367 32.4727V31.415H23.1934C22.881 31.415 22.6406 31.1746 22.6406 30.8621C22.6406 30.5497 22.881 30.3093 23.1934 30.3093H24.6367V28.7226H23.1934C22.881 28.7226 22.6406 28.4822 22.6406 28.1698C22.6406 27.8573 22.881 27.6169 23.1934 27.6169H24.6367V26.0309H23.1934C22.881 26.0309 22.6406 25.7906 22.6406 25.4781C22.6406 25.1656 22.881 24.9253 23.1934 24.9253H24.6367V23.8919C24.6367 23.5795 24.8771 23.3391 25.1895 23.3391H28.3863C28.6988 23.3391 28.9391 23.5795 28.9391 23.8919V24.9253H30.3837C30.6962 24.9253 30.9365 25.1656 30.9365 25.4781C30.9365 25.7906 30.6962 26.0309 30.3837 26.0309H28.9391V27.6169H30.3837C30.6962 27.6169 30.9365 27.8573 30.9365 28.1698C30.9365 28.4822 30.6962 28.7226 30.3837 28.7226H28.9391V30.3093H30.3837C30.6962 30.3093 30.9365 30.5497 30.9365 30.8621C30.9365 31.1746 30.6962 31.415 30.3837 31.415H28.9391V32.4727C28.9391 32.7851 28.6988 33.0255 28.3863 33.0255ZM25.7424 31.9439H27.8335V24.4447H25.7424V31.9439ZM17.8575 20.6471H19.8525C20.1649 20.6471 20.4053 20.4068 20.4053 20.0943C20.4053 19.7819 20.1649 19.5415 19.8525 19.5415H17.8575C17.545 19.5415 17.3047 19.7819 17.3047 20.0943C17.3047 20.4068 17.545 20.6471 17.8575 20.6471ZM19.8525 23.3386H17.8575C17.545 23.3386 17.3047 23.0982 17.3047 22.7857C17.3047 22.4733 17.545 22.2329 17.8575 22.2329H19.8525C20.1649 22.2329 20.4053 22.4733 20.4053 22.7857C20.4053 23.0982 20.1649 23.3386 19.8525 23.3386ZM17.8575 26.0309H19.8525C20.1649 26.0309 20.4053 25.7906 20.4053 25.4781C20.4053 25.1656 20.1649 24.9253 19.8525 24.9253H17.8575C17.545 24.9253 17.3047 25.1656 17.3047 25.4781C17.3047 25.7906 17.545 26.0309 17.8575 26.0309ZM11.0586 32.977C9.59241 32.977 8.39062 31.7753 8.39062 30.3091C8.39062 28.8429 9.59241 27.6411 11.0586 27.6411C12.5248 27.6411 13.7266 28.8429 13.7266 30.3091C13.7266 31.7753 12.5248 32.977 11.0586 32.977ZM11.0586 28.7227C10.1933 28.7227 9.47222 29.4438 9.47222 30.3091C9.47222 31.1744 10.1933 31.8954 11.0586 31.8954C11.9239 31.8954 12.6449 31.1744 12.6449 30.3091C12.6449 29.4438 11.9239 28.7227 11.0586 28.7227ZM8.39062 21.8965C8.39062 23.3627 9.59241 24.5644 11.0586 24.5644C12.5248 24.5644 13.7266 23.3627 13.7266 21.8965C13.7266 20.4303 12.5248 19.2285 11.0586 19.2285C9.59241 19.2285 8.39062 20.4303 8.39062 21.8965ZM9.47222 21.8965C9.47222 21.0312 10.1933 20.3101 11.0586 20.3101C11.9239 20.3101 12.6449 21.0312 12.6449 21.8965C12.6449 22.7618 11.9239 23.4828 11.0586 23.4828C10.1933 23.4828 9.47222 22.7618 9.47222 21.8965ZM35.8125 36.5108H34.5137C34.2013 36.5108 33.9609 36.2704 33.9609 35.958V34.6598H33.4591C33.1466 34.6598 32.9062 34.4195 32.9062 34.107C32.9062 33.7946 33.1466 33.5542 33.4591 33.5542H33.9609V32.905H33.4591C33.1466 32.905 32.9062 32.6646 32.9062 32.3521C32.9062 32.0397 33.1466 31.7993 33.4591 31.7993H33.9609V31.1503H33.4591C33.1466 31.1503 32.9062 30.91 32.9062 30.5975C32.9062 30.285 33.1466 30.0447 33.4591 30.0447H33.9609V28.7232C33.9609 28.4108 34.2013 28.1704 34.5137 28.1704H35.8125V27.6893C35.8125 27.3768 36.0529 27.1365 36.3653 27.1365C36.6778 27.1365 36.9181 27.3768 36.9181 27.6893V28.1704H37.5938V27.6893C37.5938 27.3768 37.8341 27.1365 38.1466 27.1365C38.459 27.1365 38.6994 27.3768 38.6994 27.6893V28.1704H39.3477V27.6893C39.3477 27.3768 39.588 27.1365 39.9005 27.1365C40.2129 27.1365 40.4533 27.3768 40.4533 27.6893V28.1704H41.7485C42.061 28.1704 42.3013 28.4108 42.3013 28.7232V30.0447H42.7823C43.0947 30.0447 43.3351 30.285 43.3351 30.5975C43.3351 30.91 43.0947 31.1503 42.7823 31.1503H42.3013V31.7993H42.7823C43.0947 31.7993 43.3351 32.0397 43.3351 32.3521C43.3351 32.6646 43.0947 32.905 42.7823 32.905H42.3013V33.5542H42.7823C43.0947 33.5542 43.3351 33.7946 43.3351 34.107C43.3351 34.4195 43.0947 34.6598 42.7823 34.6598H42.3013V35.958C42.3013 36.2704 42.061 36.5108 41.7485 36.5108H40.4533V37.0149C40.4533 37.3274 40.2129 37.5677 39.9005 37.5677C39.588 37.5677 39.3477 37.3274 39.3477 37.0149V36.5108H38.6994V37.0149C38.6994 37.3274 38.459 37.5677 38.1466 37.5677C37.8341 37.5677 37.5938 37.3274 37.5938 37.0149V36.5108H36.9181V37.0149C36.9181 37.3274 36.6778 37.5677 36.3653 37.5677C36.0529 37.5677 35.8125 37.3274 35.8125 37.0149V36.5108ZM41.1957 32.5178V33.9414C41.1802 33.9934 41.1719 34.049 41.1719 34.107C41.1719 34.1651 41.1802 34.2206 41.1957 34.2726V35.4292H40.0689C40.0161 35.4131 39.9596 35.4045 39.9005 35.4045C39.8414 35.4045 39.7849 35.4131 39.7321 35.4292H38.3149C38.2621 35.4131 38.2056 35.4045 38.1466 35.4045C38.0875 35.4045 38.031 35.4131 37.9782 35.4292H36.5337C36.4809 35.4131 36.4244 35.4045 36.3653 35.4045C36.3062 35.4045 36.2497 35.4131 36.197 35.4292H35.0666V34.1659C35.0674 34.1573 35.0681 34.1486 35.0686 34.1399C35.0692 34.129 35.0695 34.1181 35.0695 34.107C35.0695 34.0871 35.0685 34.0675 35.0666 34.0482V32.411C35.0685 32.3917 35.0695 32.3721 35.0695 32.3521C35.0695 32.3322 35.0685 32.3126 35.0666 32.2933V30.6563C35.0685 30.637 35.0695 30.6174 35.0695 30.5975C35.0695 30.5902 35.0693 30.583 35.0691 30.5758L35.0682 30.5587C35.0678 30.552 35.0672 30.5453 35.0666 30.5387V29.3001H41.1957V30.4319C41.1802 30.4839 41.1719 30.5394 41.1719 30.5975C41.1719 30.6556 41.1802 30.7111 41.1957 30.7631V32.1865C41.1802 32.2385 41.1719 32.2941 41.1719 32.3521C41.1719 32.4102 41.1802 32.4658 41.1957 32.5178ZM36.2227 33.7704C36.2227 34.0828 36.463 34.3232 36.7755 34.3232C37.0879 34.3232 37.3283 34.0828 37.3283 33.7704V30.9342C37.3283 30.6217 37.0879 30.3813 36.7755 30.3813C36.463 30.3813 36.2227 30.6217 36.2227 30.9342V33.7704ZM39.4903 34.3232C39.1778 34.3232 38.9375 34.0828 38.9375 33.7704V30.9342C38.9375 30.6217 39.1778 30.3813 39.4903 30.3813C39.8028 30.3813 40.0431 30.6217 40.0431 30.9342V33.7704C40.0431 34.0828 39.8028 34.3232 39.4903 34.3232ZM35.7872 41.0773H39.6569C39.9694 41.0773 40.2098 40.837 40.2098 40.5245C40.2098 40.212 39.9694 39.9717 39.6569 39.9717H35.7872C35.4747 39.9717 35.2344 40.212 35.2344 40.5245C35.2344 40.837 35.4747 41.0773 35.7872 41.0773ZM24.8041 42.3754H12.6661C12.3536 42.3754 12.1133 42.135 12.1133 41.8225V41.0773H11.5372C11.2247 41.0773 10.9844 40.837 10.9844 40.5245C10.9844 40.212 11.2247 39.9717 11.5372 39.9717H12.1133V39.2748C12.1133 38.9623 12.3536 38.7219 12.6661 38.7219H24.8041C25.1166 38.7219 25.3569 38.9623 25.3569 39.2748V39.9717H26.2008C26.5133 39.9717 26.7536 40.212 26.7536 40.5245C26.7536 40.837 26.5133 41.0773 26.2008 41.0773H25.3569V41.8225C25.3569 42.135 25.1166 42.3754 24.8041 42.3754ZM13.2189 41.2938V40.5547C13.2191 40.5504 13.2193 40.5461 13.2194 40.5418C13.2196 40.5361 13.2197 40.5303 13.2197 40.5245C13.2197 40.5143 13.2194 40.5043 13.2189 40.4943V39.8276H24.2754V40.367C24.2614 40.4167 24.2539 40.4695 24.2539 40.5245C24.2539 40.5795 24.2614 40.6323 24.2754 40.6819V41.2938H13.2189ZM17.7872 32.9772H19.9264C20.2388 32.9772 20.4792 32.7369 20.4792 32.4244V30.2852C20.4792 29.9728 20.2388 29.7324 19.9264 29.7324H17.7872C17.4747 29.7324 17.2344 29.9728 17.2344 30.2852V32.4244C17.2344 32.7369 17.4747 32.9772 17.7872 32.9772ZM19.3736 31.8956H18.34V30.8621H19.3736V31.8956Z" fill="url(#paint0_linear_73_191)"/>
<defs>
<linearGradient id="paint0_linear_73_191" x1="-1.16366" y1="-83.3548" x2="59.509" y2="-77.0966" gradientUnits="userSpaceOnUse">
<stop stop-color="#E035CF"/>
<stop offset="1" stop-color="#001BF3"/>
</linearGradient>
</defs>
</svg>
