<svg width="48" height="44" viewBox="0 0 48 44" fill="none" xmlns="http://www.w3.org/2000/svg">
<path fill-rule="evenodd" clip-rule="evenodd" d="M45.3066 33.6433H30.3484V37.1193C31.9874 37.3504 33.2901 38.6453 33.533 40.2806H34.2202C35.7112 40.2806 36.9136 41.483 36.9136 42.974V43.4069C36.9136 43.7195 36.6731 43.96 36.3605 43.96H11.639C11.3264 43.96 11.0859 43.7195 11.0859 43.4069V42.974C11.0859 41.483 12.2883 40.2806 13.7793 40.2806H14.4001C14.6475 38.6152 15.9941 37.3028 17.6758 37.1076V33.6433H2.69338C1.20239 33.6433 0 32.4409 0 30.9499V2.69338C0 1.20239 1.20239 0 2.69338 0H45.3066C46.7976 0 48 1.20239 48 2.69338V30.9499C48 32.4409 46.7976 33.6433 45.3066 33.6433ZM29.7953 32.5371C29.8536 32.5371 29.9094 32.5455 29.9616 32.5611H45.3066C46.1964 32.5611 46.9178 31.8397 46.9178 30.9499V2.69338C46.9178 1.8036 46.1964 1.08216 45.3066 1.08216H2.69338C1.8036 1.08216 1.08216 1.8036 1.08216 2.69338V30.9499C1.08216 31.8397 1.8036 32.5611 2.69338 32.5611H18.0626C18.1148 32.5455 18.1706 32.5371 18.2289 32.5371C18.2872 32.5371 18.343 32.5455 18.3952 32.5611H29.629C29.6812 32.5455 29.737 32.5371 29.7953 32.5371ZM29.2422 33.6433H18.782V37.0825H29.2422V33.6433ZM24.0017 22.7465C25.5517 23.6704 27.0592 24.1679 28.3056 24.1679C29.2195 24.1679 29.989 23.9034 30.5421 23.3503C31.851 22.0414 31.5378 19.4951 29.9423 16.8152C31.5383 14.1364 31.8517 11.5775 30.5427 10.2685C29.2352 8.961 26.6927 9.28417 24.0158 10.874C21.3337 9.27322 18.7704 8.95761 17.4599 10.2681C16.1523 11.5758 16.4756 14.1186 18.0658 16.7957C16.4655 19.4775 16.1501 22.0403 17.4605 23.3507C18.0136 23.8797 18.7591 24.1683 19.697 24.1683V24.1924C20.3703 24.1924 21.1158 24.0481 21.9094 23.7595C22.5924 23.5103 23.2966 23.169 24.0017 22.7465ZM24.0009 21.4656C24.8712 20.8862 25.7363 20.1731 26.5507 19.3587C27.4013 18.5081 28.1032 17.6443 28.6595 16.8073C28.1036 15.9736 27.4017 15.1118 26.5501 14.2601C25.6957 13.4058 24.8311 12.7022 23.9949 12.1454C23.1604 12.7018 22.2996 13.4053 21.4525 14.2605C20.6018 15.1112 19.8997 15.9752 19.3433 16.8124C19.8992 17.6457 20.6007 18.5071 21.4519 19.3583C22.3017 20.2081 23.1646 20.9095 24.0009 21.4656ZM25.0199 22.0799C25.8077 21.5201 26.5841 20.8644 27.3202 20.1282C28.0708 19.3826 28.7262 18.608 29.2785 17.8315C30.4315 19.9611 30.5718 21.7815 29.7726 22.5808C28.9743 23.3791 27.1469 23.2298 25.0199 22.0799ZM18.7341 17.8226C19.2847 18.6003 19.937 19.3776 20.6824 20.1278C21.4296 20.8751 22.2052 21.529 22.9822 22.0809C22.4978 22.3433 22.0173 22.56 21.5487 22.7254C20.0577 23.2545 18.8553 23.2064 18.2301 22.5812C17.431 21.7821 17.5813 19.9521 18.7341 17.8226ZM18.7243 15.7883C19.2766 15.0116 19.9322 14.2368 20.6829 13.491C21.4347 12.7441 22.2135 12.0907 22.9928 11.5394C20.8572 10.3794 19.0305 10.2367 18.2295 11.0377C17.4301 11.8371 17.5706 13.6581 18.7243 15.7883ZM25.0172 11.5283C25.7956 12.0814 26.5722 12.7382 27.3197 13.4906C28.0679 14.2388 28.7217 15.014 29.2729 15.7896C30.4223 13.6631 30.5713 11.8362 29.7732 11.0381C29.4365 10.7014 28.9315 10.533 28.2822 10.533C27.393 10.533 26.256 10.8591 25.0172 11.5283ZM24.0006 18.3728C23.1349 18.3728 22.4375 17.6754 22.4375 16.8097C22.4375 15.944 23.1349 15.2466 24.0006 15.2466C24.8663 15.2466 25.5638 15.944 25.5638 16.8097C25.5638 17.6754 24.8663 18.3728 24.0006 18.3728ZM24.0006 16.3528C23.7361 16.3528 23.5197 16.5692 23.5197 16.8338C23.5197 17.0983 23.7361 17.3147 24.0006 17.3147C24.2651 17.3147 24.4816 17.0983 24.4816 16.8338C24.4816 16.5692 24.2651 16.3528 24.0006 16.3528ZM29.6298 38.1647C29.6818 38.1802 29.7373 38.1884 29.7953 38.1884C29.8505 38.1884 29.9035 38.1809 29.9534 38.1668C31.1835 38.216 32.2078 39.1102 32.4575 40.2806H29.796H18.2289H15.5238C15.7761 39.098 16.8192 38.1975 18.0664 38.1656C18.1175 38.1805 18.172 38.1884 18.2289 38.1884C18.2869 38.1884 18.3424 38.1802 18.3944 38.1647H29.6298ZM33.0392 41.3868H29.796H18.2289H14.931L14.9125 41.3871L14.894 41.3868H13.8033C12.9617 41.3868 12.2643 42.0362 12.1921 42.8778H35.8555C35.7833 42.0362 35.0859 41.3868 34.2442 41.3868H33.0503L33.0688 41.3871H33.0207L33.0392 41.3868ZM4.04138 30.1322H43.9612C44.2739 30.1322 44.5143 29.8918 44.5143 29.5792V4.01601C44.5143 3.70338 44.2739 3.46289 43.9612 3.46289H4.04138C3.72875 3.46289 3.48828 3.70338 3.48828 4.01601V29.5792C3.48828 29.8918 3.72875 30.1322 4.04138 30.1322ZM43.4322 29.0501H4.59451V4.5691H43.4322V29.0501Z" fill="white"/>
</svg>
