<svg width="15" height="14" viewBox="0 0 15 14" fill="none" xmlns="http://www.w3.org/2000/svg">
<path d="M1.53425 12.4658H2.60822L9.22466 5.84931L8.15069 4.77534L1.53425 11.3918V12.4658ZM12.5041 4.73699L9.24384 1.51507L10.3178 0.441096C10.6119 0.147032 10.9731 0 11.4014 0C11.8297 0 12.1909 0.147032 12.4849 0.441096L13.5589 1.51507C13.853 1.80913 14.0064 2.16393 14.0192 2.57945C14.032 2.99498 13.8913 3.34977 13.5973 3.64384L12.5041 4.73699ZM11.3918 5.86849L3.26027 14H0V10.7397L8.13151 2.60822L11.3918 5.86849ZM8.68767 5.31233L8.15069 4.77534L9.22466 5.84931L8.68767 5.31233Z" fill="white"/>
</svg>
