<svg width="54" height="54" viewBox="0 0 54 54" fill="none" xmlns="http://www.w3.org/2000/svg">
<path d="M27.0025 53.5115C25.8922 53.5115 24.8275 53.0705 24.0425 52.2855C23.2574 51.5004 22.8164 50.4357 22.8164 49.3255V4.67433C22.8164 3.56412 23.2574 2.49938 24.0425 1.71435C24.8275 0.929309 25.8922 0.488281 27.0025 0.488281C28.1127 0.488281 29.1774 0.929309 29.9624 1.71435C30.7475 2.49938 31.1885 3.56412 31.1885 4.67433V49.3255C31.1885 50.4357 30.7475 51.5004 29.9624 52.2855C29.1774 53.0705 28.1127 53.5115 27.0025 53.5115Z" fill="white"/>
<path d="M49.3333 31.1865H4.68214C3.57193 31.1865 2.50719 30.7455 1.72216 29.9605C0.937122 29.1754 0.496094 28.1107 0.496094 27.0005C0.496094 25.8903 0.937122 24.8256 1.72216 24.0405C2.50719 23.2555 3.57193 22.8145 4.68214 22.8145H49.3333C50.4435 22.8145 51.5083 23.2555 52.2933 24.0405C53.0783 24.8256 53.5194 25.8903 53.5194 27.0005C53.5194 28.1107 53.0783 29.1754 52.2933 29.9605C51.5083 30.7455 50.4435 31.1865 49.3333 31.1865Z" fill="white"/>
</svg>
