<svg width="48" height="48" viewBox="0 0 48 48" fill="none" xmlns="http://www.w3.org/2000/svg">
<path fill-rule="evenodd" clip-rule="evenodd" d="M12.8047 10.2343C12.8047 10.5466 13.0449 10.7868 13.3572 10.7868C13.6695 10.7868 13.9098 10.5466 13.9098 10.2343V7.61546H18.1406V10.2343C18.1406 10.5466 18.3809 10.7868 18.6932 10.7868C19.0055 10.7868 19.2458 10.5466 19.2458 10.2343V7.61546H23.4453V10.2343C23.4453 10.5466 23.6855 10.7868 23.9979 10.7868C24.3102 10.7868 24.5504 10.5466 24.5504 10.2343V7.61546H28.7578V10.2343C28.7578 10.5466 28.998 10.7868 29.3104 10.7868C29.6227 10.7868 29.8629 10.5466 29.8629 10.2343V7.61546H34.0664V10.2343C34.0664 10.5466 34.3066 10.7868 34.6189 10.7868C34.9313 10.7868 35.1715 10.5466 35.1715 10.2343V7.61546H40.0249V12.4443H37.7674C37.4551 12.4443 37.2148 12.6846 37.2148 12.9969C37.2148 13.3092 37.4551 13.5494 37.7674 13.5494H40.0249V17.7773H37.7674C37.4551 17.7773 37.2148 18.0176 37.2148 18.3299C37.2148 18.6422 37.4551 18.8825 37.7674 18.8825H40.0249V23.0869H37.7674C37.4551 23.0869 37.2148 23.3271 37.2148 23.6395C37.2148 23.9518 37.4551 24.192 37.7674 24.192H40.0249V28.396H37.7674C37.4551 28.396 37.2148 28.6362 37.2148 28.9485C37.2148 29.2609 37.4551 29.5011 37.7674 29.5011H40.0249V33.7061H37.7674C37.4551 33.7061 37.2148 33.9463 37.2148 34.2586C37.2148 34.5709 37.4551 34.8112 37.7674 34.8112H40.0249V39.6877H35.1715V37.0208C35.1715 36.7085 34.9313 36.4683 34.6189 36.4683C34.3066 36.4683 34.0664 36.7085 34.0664 37.0208V39.6877H29.8629V37.0208C29.8629 36.7085 29.6227 36.4683 29.3104 36.4683C28.998 36.4683 28.7578 36.7085 28.7578 37.0208V39.6877H24.5504V37.0208C24.5504 36.7085 24.3102 36.4683 23.9979 36.4683C23.6855 36.4683 23.4453 36.7085 23.4453 37.0208V39.6877H19.2458V37.0208C19.2458 36.7085 19.0055 36.4683 18.6932 36.4683C18.3809 36.4683 18.1406 36.7085 18.1406 37.0208V39.6877H13.9098V37.0208C13.9098 36.7085 13.6695 36.4683 13.3572 36.4683C13.0449 36.4683 12.8047 36.7085 12.8047 37.0208V39.6877H7.95278V34.8112H10.979C11.2913 34.8112 11.5315 34.5709 11.5315 34.2586C11.5315 33.9463 11.2913 33.7061 10.979 33.7061H7.95278V29.5011H10.979C11.2913 29.5011 11.5315 29.2609 11.5315 28.9485C11.5315 28.6362 11.2913 28.396 10.979 28.396H7.95278V24.192H10.979C11.2913 24.192 11.5315 23.9518 11.5315 23.6395C11.5315 23.3271 11.2913 23.0869 10.979 23.0869H7.95278V18.8825H10.979C11.2913 18.8825 11.5315 18.6422 11.5315 18.3299C11.5315 18.0176 11.2913 17.7773 10.979 17.7773H7.95278V13.5494H10.979C11.2913 13.5494 11.5315 13.3092 11.5315 12.9969C11.5315 12.6846 11.2913 12.4443 10.979 12.4443H7.95278V7.61546H12.8047V10.2343ZM41.1301 34.8112V40.2162C41.1301 40.5285 40.8898 40.7687 40.5775 40.7687H35.1715V47.4473C35.1715 47.7596 34.9313 47.9998 34.6189 47.9998C34.3066 47.9998 34.0664 47.7596 34.0664 47.4473V40.7687H29.8629V47.4473C29.8629 47.7596 29.6227 47.9998 29.3104 47.9998C28.998 47.9998 28.7578 47.7596 28.7578 47.4473V40.7687H24.5504V47.4473C24.5504 47.7596 24.3102 47.9998 23.9979 47.9998C23.6855 47.9998 23.4453 47.7596 23.4453 47.4473V40.7687H19.2458V47.4473C19.2458 47.7596 19.0055 47.9998 18.6932 47.9998C18.3809 47.9998 18.1406 47.7596 18.1406 47.4473V40.7687H13.9098V47.4473C13.9098 47.7596 13.6695 47.9998 13.3572 47.9998C13.0449 47.9998 12.8047 47.7596 12.8047 47.4473V40.7687H7.40024C7.08792 40.7687 6.84766 40.5285 6.84766 40.2162V34.8112H0.552544C0.240231 34.8112 0 34.5709 0 34.2586C0 33.9463 0.240231 33.7061 0.552544 33.7061H6.84766V29.5011H0.552544C0.240231 29.5011 0 29.2609 0 28.9485C0 28.6362 0.240231 28.396 0.552544 28.396H6.84766V24.192H0.552544C0.240231 24.192 0 23.9518 0 23.6395C0 23.3271 0.240231 23.0869 0.552544 23.0869H6.84766V18.8825H0.552544C0.240231 18.8825 0 18.6422 0 18.3299C0 18.0176 0.240231 17.7773 0.552544 17.7773H6.84766V13.5494H0.552544C0.240231 13.5494 0 13.3092 0 12.9969C0 12.6846 0.240231 12.4443 0.552544 12.4443H6.84766V7.03889C6.84766 6.72658 7.08792 6.48633 7.40024 6.48633H12.8047V0.552544C12.8047 0.240231 13.0449 0 13.3572 0C13.6695 0 13.9098 0.240231 13.9098 0.552544V6.48633H18.1406V0.552544C18.1406 0.240231 18.3809 0 18.6932 0C19.0055 0 19.2458 0.240231 19.2458 0.552544V6.48633H23.4453V0.552544C23.4453 0.240231 23.6855 0 23.9979 0C24.3102 0 24.5504 0.240231 24.5504 0.552544V6.48633H28.7578V0.552544C28.7578 0.240231 28.998 0 29.3104 0C29.6227 0 29.8629 0.240231 29.8629 0.552544V6.48633H34.0664V0.552544C34.0664 0.240231 34.3066 0 34.6189 0C34.9313 0 35.1715 0.240231 35.1715 0.552544V6.48633H40.5775C40.8898 6.48633 41.1301 6.72658 41.1301 7.03889V12.4443H47.4491C47.7614 12.4443 48.0016 12.6846 48.0016 12.9969C48.0016 13.3092 47.7614 13.5494 47.4491 13.5494H41.1301V17.7773H47.4491C47.7614 17.7773 48.0016 18.0176 48.0016 18.3299C48.0016 18.6422 47.7614 18.8825 47.4491 18.8825H41.1301V23.0869H47.4491C47.7614 23.0869 48.0016 23.3271 48.0016 23.6395C48.0016 23.9518 47.7614 24.192 47.4491 24.192H41.1301V28.396H47.4491C47.7614 28.396 48.0016 28.6362 48.0016 28.9485C48.0016 29.2609 47.7614 29.5011 47.4491 29.5011H41.1301V33.7061H47.4491C47.7614 33.7061 48.0016 33.9463 48.0016 34.2586C48.0016 34.5709 47.7614 34.8112 47.4491 34.8112H41.1301ZM16.408 31.7599H31.5673C31.8796 31.7599 32.1198 31.5197 32.1198 31.2074V16.0482C32.1198 15.7359 31.8796 15.4956 31.5673 15.4956H16.408C16.0957 15.4956 15.8555 15.7359 15.8555 16.0482V31.2074C15.8555 31.5197 16.0957 31.7599 16.408 31.7599ZM31.0147 30.6789H16.9606V16.6247H31.0147V30.6789Z" fill="white"/>
</svg>
