<svg width="47" height="48" viewBox="0 0 47 48" fill="none" xmlns="http://www.w3.org/2000/svg">
<path fill-rule="evenodd" clip-rule="evenodd" d="M40.6928 1.10568L44.5529 4.23047H7.20148L3.36651 1.10568H40.6928ZM1.27344 0.552841C1.27344 0.610426 1.2816 0.665562 1.29688 0.717196V26.079C1.29688 26.2473 1.36898 26.4155 1.48916 26.5117L6.59549 30.6724C6.69573 30.7899 6.8458 30.8626 7.01768 30.8626H36.7769V33.1698C36.7769 34.7562 35.503 36.0301 33.9166 36.0301H24.3502C22.1869 36.0301 20.4083 37.7847 20.4083 39.972C20.4083 40.7412 20.0958 41.4382 19.567 41.9911C19.0382 42.5439 18.3171 42.8323 17.5479 42.8323H13.9975C13.7507 41.7802 12.8129 41.0054 11.6814 41.0054H11.4144C11.2376 39.7362 10.1412 38.77 8.84343 38.77H5.96033H5.95908H3.24425C2.93178 38.77 2.69141 39.0104 2.69141 39.3228V39.7319H0.552832C0.240361 39.7319 0 39.9723 0 40.2848V42.3519C0 42.6644 0.240361 42.9047 0.552832 42.9047H2.69141V43.8661H0.552832C0.240361 43.8661 0 44.1065 0 44.4189V46.486C0 46.7985 0.240361 47.0389 0.552832 47.0389H2.69141V47.4471C2.69141 47.7596 2.93178 47.9999 3.24425 47.9999H5.95908H5.96033H8.84343C10.1529 47.9999 11.2246 47.0289 11.4107 45.7886H11.6814V45.7646C12.8127 45.7646 13.7504 44.99 13.9974 43.938H17.5479L17.572 43.914C18.6296 43.914 19.6151 43.5054 20.3602 42.7602C21.1053 42.0151 21.5139 41.0296 21.5139 39.972C21.5139 38.3856 22.7878 37.1117 24.3742 37.1117H33.9406C36.1039 37.1117 37.8826 35.3571 37.8826 33.1698V30.8626H46.0765C46.389 30.8626 46.6294 30.6222 46.6294 30.3098V4.78331C46.6294 4.57224 46.5197 4.39407 46.3522 4.30066L41.2216 0.120188C41.1255 0.0480798 41.0053 0 40.8851 0H1.82628C1.51381 0 1.27344 0.24037 1.27344 0.552841ZM12.9708 43.2582C12.9618 43.2988 12.957 43.3413 12.957 43.3852C12.957 43.4343 12.963 43.4816 12.9742 43.5264C12.9155 44.1917 12.3628 44.707 11.6814 44.707H11.465V44.6829V42.1111H11.6814C12.3514 42.1111 12.8969 42.6091 12.9708 43.2582ZM41.2708 26.8482H37.4959C37.4438 26.8326 37.388 26.8242 37.3298 26.8242C37.2715 26.8242 37.2157 26.8326 37.1636 26.8482H33.3869V21.7766H41.2708V26.8482ZM37.8826 27.9298V29.781H45.5477V5.33613H7.57052V29.781H36.7769V27.9298H32.8341C32.5216 27.9298 32.2812 27.6895 32.2812 27.377V21.1997C32.2812 20.8872 32.5216 20.6469 32.8341 20.6469H41.8236C42.1361 20.6469 42.3765 20.8872 42.3765 21.1997V27.377C42.3765 27.6895 42.1361 27.9298 41.8236 27.9298H37.8826ZM6.46484 29.1588V5.0393L2.37851 1.70631V25.8387L6.46484 29.1588ZM8.96484 17.5462C8.96484 23.0985 13.4837 27.6173 19.036 27.6173C24.5751 27.6173 29.0856 23.1201 29.1071 17.586C29.1094 17.5651 29.1105 17.5437 29.1105 17.5221C29.1105 17.4994 29.1093 17.4771 29.1068 17.4552C29.0828 14.7542 27.9895 12.3033 26.2307 10.5063C26.2087 10.4713 26.1823 10.4381 26.1516 10.4074C26.1203 10.3761 26.0866 10.3494 26.051 10.3272C24.2742 8.60005 21.8643 7.52103 19.2076 7.47642C19.1542 7.45998 19.097 7.45117 19.0372 7.45117C18.9775 7.45117 18.9203 7.45996 18.867 7.47637C16.2097 7.52034 13.7991 8.5992 12.0218 10.3264C11.9858 10.3488 11.9516 10.3758 11.9201 10.4074C11.8889 10.4385 11.8623 10.4721 11.8401 10.5074C10.0693 12.3175 8.97342 14.7905 8.96489 17.5141L8.96484 17.5219L8.96486 17.5267L8.96484 17.5462ZM24.9581 10.8316C23.5053 9.54767 21.6373 8.72439 19.59 8.59775V10.4284C21.1426 10.5474 22.5564 11.1633 23.6725 12.1173L24.9581 10.8316ZM24.4435 12.8846C25.4054 13.999 26.0285 15.4139 26.153 16.9692H27.983C27.8509 14.9194 27.0204 13.0503 25.7287 11.5994L24.4435 12.8846ZM22.9036 12.8862C21.9872 12.1246 20.8433 11.6278 19.59 11.514V13.3517C20.3402 13.4506 21.0293 13.747 21.603 14.1868L22.9036 12.8862ZM22.375 14.9531L23.675 13.6531C24.4441 14.5681 24.948 15.7133 25.0671 16.9692H23.2262C23.1231 16.2166 22.821 15.5263 22.375 14.9531ZM25.74 23.4802C27.0353 22.0197 27.8642 20.1376 27.986 18.0749H26.1566C26.0418 19.6431 25.42 21.0708 24.4546 22.1948L25.74 23.4802ZM22.3852 20.1253C22.835 19.5427 23.1364 18.8402 23.2325 18.0749H25.0715C24.9613 19.3437 24.4587 20.5015 23.6859 21.426L22.3852 20.1253ZM12.3318 23.4799C11.0366 22.0194 10.2078 20.1374 10.0861 18.0748H11.9177C12.0325 19.6424 12.6538 21.0695 13.6185 22.1933L12.3318 23.4799ZM13.1009 24.2492C14.5561 25.5402 16.4301 26.3682 18.4844 26.4947V24.6638C16.9251 24.5443 15.5058 23.9236 14.3875 22.9626L13.1009 24.2492ZM24.9709 24.2494C23.5163 25.5398 21.6433 26.3676 19.59 26.4946V24.6638C21.1486 24.5443 22.5673 23.9242 23.6854 22.9639L24.9709 24.2494ZM22.9167 22.1951L21.6162 20.8947C21.0399 21.34 20.346 21.6403 19.59 21.7399V23.5783C20.8492 23.4639 21.9981 22.9629 22.9167 22.1951ZM16.4547 20.8953C17.032 21.3412 17.7271 21.6415 18.4844 21.7405V23.5783C17.2245 23.4639 16.075 22.9623 15.1562 22.1939L16.4547 20.8953ZM15.6856 20.1262C15.2354 19.5434 14.9337 18.8405 14.8376 18.0748H13.0029C13.113 19.3429 13.6151 20.5002 14.3872 21.4245L15.6856 20.1262ZM10.0889 16.9691H11.9214C12.0458 15.4145 12.6685 14.0002 13.6296 12.886L12.3388 11.5952C11.0479 13.0467 10.2204 14.9174 10.0889 16.9691ZM13.0073 16.9691H14.8439C14.9471 16.2162 15.2494 15.5256 15.6958 14.9523L14.3982 13.6546C13.6297 14.5693 13.1263 15.7139 13.0073 16.9691ZM15.9113 17.5219C15.9113 17.5333 15.911 17.5445 15.9104 17.5557C15.9157 19.2817 17.3077 20.6705 19.0351 20.6705C20.7657 20.6705 22.1598 19.2764 22.1598 17.5458C22.1598 15.8152 20.7657 14.4211 19.0351 14.4211C17.3212 14.4211 15.9373 15.7884 15.9107 17.4957C15.9111 17.5044 15.9113 17.5131 15.9113 17.5219ZM13.1091 10.8273L14.4004 12.1185C15.5168 11.1638 16.9311 10.5475 18.4844 10.4284V8.59745C16.4289 8.72294 14.5604 9.54479 13.1091 10.8273ZM16.468 14.1861L15.1693 12.8874C16.0859 12.1251 17.2305 11.6278 18.4844 11.514V13.3512C17.7329 13.4494 17.0426 13.7459 16.468 14.1861ZM3.79708 46.9183H5.40625V39.8997H3.79708V40.1163C3.81315 40.1691 3.82176 40.2257 3.82176 40.2848V42.3519C3.82176 42.411 3.81315 42.4676 3.79708 42.5204V44.2504C3.81315 44.3033 3.82176 44.3598 3.82176 44.4189V46.486C3.82176 46.5452 3.81315 46.6017 3.79708 46.6545V46.9183ZM8.84343 46.9183H6.51316V39.8997H8.84343C9.66066 39.8997 10.3337 40.5727 10.3337 41.39V45.4281C10.3337 46.2453 9.66066 46.9183 8.84343 46.9183ZM2.69141 44.9958V45.9573H1.10566V44.9958H2.69141ZM1.10566 40.8616H2.69141V41.8231H1.10566V40.8616ZM43.2633 18.9405H31.3653C31.0529 18.9405 30.8125 18.7001 30.8125 18.3876V8.00399C30.8125 7.69152 31.0529 7.45117 31.3653 7.45117H43.2633C43.5757 7.45117 43.8161 7.69152 43.8161 8.00399V18.3876C43.8161 18.7001 43.5757 18.9405 43.2633 18.9405ZM31.9182 17.8588H42.7345V8.55684H31.9182V17.8588ZM35.1167 15.9118H39.5393C39.7076 15.9118 39.8759 15.8397 39.972 15.6955L41.6065 13.5563C41.7507 13.34 41.7507 13.0755 41.6065 12.8832L39.972 10.744C39.8759 10.5998 39.7076 10.5277 39.5393 10.5277H35.1167C34.9484 10.5277 34.7802 10.5998 34.684 10.744L33.0496 12.8832C32.9054 13.0996 32.9054 13.364 33.0496 13.5563L34.684 15.6955C34.7802 15.8397 34.9484 15.9118 35.1167 15.9118ZM39.2749 14.8302H35.3811L34.1552 13.2438L35.3811 11.6574H39.2749L40.5008 13.2438L39.2749 14.8302ZM36.1974 14.2769C35.8849 14.2769 35.6445 14.0366 35.6445 13.7241V12.6905C35.6445 12.3781 35.8849 12.1377 36.1974 12.1377C36.5098 12.1377 36.7502 12.3781 36.7502 12.6905V13.7241C36.7502 14.0366 36.5098 14.2769 36.1974 14.2769ZM37.8828 13.7241C37.8828 14.0366 38.1232 14.2769 38.4356 14.2769C38.7481 14.2769 38.9885 14.0366 38.9885 13.7241V12.6905C38.9885 12.3781 38.7481 12.1377 38.4356 12.1377C38.1232 12.1377 37.8828 12.3781 37.8828 12.6905V13.7241ZM37.5419 26.4636C37.6621 26.5598 37.7823 26.6079 37.9265 26.6079V26.6319C38.0707 26.6319 38.215 26.5838 38.3111 26.4636C38.5274 26.2473 38.5274 25.9108 38.3111 25.6945L37.5179 24.9253L38.3351 24.1802C38.4313 24.0841 38.5034 23.9398 38.5034 23.7956C38.5034 23.6274 38.3351 23.387 38.3351 23.387L37.1333 22.1852C36.917 21.9689 36.5805 21.9689 36.3642 22.1852C36.1478 22.4015 36.1478 22.738 36.3642 22.9544L37.1574 23.7476L36.3401 24.4927C36.244 24.5888 36.1719 24.733 36.1719 24.8773C36.1719 25.0455 36.3401 25.2859 36.3401 25.2859L37.5419 26.4636Z" fill="white"/>
</svg>
