<svg width="48" height="30" viewBox="0 0 48 30" fill="none" xmlns="http://www.w3.org/2000/svg">
<path fill-rule="evenodd" clip-rule="evenodd" d="M8.33772 2.93093C8.0254 2.93093 7.78516 2.6907 7.78516 2.37839V1.10502H3.26917V4.03613H44.8067V1.10502H40.2887V2.37839C40.2887 2.6907 40.0485 2.93093 39.7362 2.93093C39.4238 2.93093 39.1836 2.6907 39.1836 2.37839V1.10502H35.0504V2.37839C35.0504 2.6907 34.8102 2.93093 34.4979 2.93093C34.1856 2.93093 33.9453 2.6907 33.9453 2.37839V1.10502H29.8395V2.37839C29.8395 2.6907 29.5992 2.93093 29.2869 2.93093C28.9746 2.93093 28.7344 2.6907 28.7344 2.37839V1.10502H24.6012V2.37839C24.6012 2.6907 24.361 2.93093 24.0487 2.93093C23.7363 2.93093 23.4961 2.6907 23.4961 2.37839V1.10502H19.3629V2.37839C19.3629 2.6907 19.1227 2.93093 18.8104 2.93093C18.4981 2.93093 18.2578 2.6907 18.2578 2.37839V1.10502H14.1285V2.37839C14.1285 2.6907 13.8883 2.93093 13.576 2.93093C13.2637 2.93093 13.0234 2.6907 13.0234 2.37839V1.10502H8.89026V2.37839C8.89026 2.6907 8.65003 2.93093 8.33772 2.93093ZM45.3352 0.0239258H39.9021C39.85 0.00833771 39.7943 0 39.7362 0C39.678 0 39.6223 0.00833771 39.5702 0.0239258H34.6638C34.6117 0.00833771 34.5561 0 34.4979 0C34.4397 0 34.384 0.00833771 34.3319 0.0239258H29.4529C29.4008 0.00833771 29.3451 0 29.2869 0C29.2288 0 29.1731 0.00833771 29.121 0.0239258H24.2146C24.1625 0.00833771 24.1068 0 24.0487 0C23.9905 0 23.9348 0.00833771 23.8827 0.0239258H18.9763C18.9242 0.00833771 18.8686 0 18.8104 0C18.7522 0 18.6965 0.00833771 18.6444 0.0239258H13.742C13.6899 0.00833771 13.6342 0 13.576 0C13.5178 0 13.4621 0.00833771 13.41 0.0239258H8.50367C8.45158 0.00833771 8.3959 0 8.33772 0C8.27954 0 8.22386 0.00833771 8.17176 0.0239258H2.7166C2.40429 0.0239258 2.16406 0.264174 2.16406 0.576486V4.03613H0.576571C0.264259 4.03613 0.0240292 4.27638 0.0240292 4.58869V14.7268C0.0240292 15.0391 0.264259 15.2794 0.576571 15.2794H0.864866C1.46547 15.2794 1.96997 15.7599 1.96997 16.3845C1.96997 16.6968 1.84985 16.9611 1.63363 17.1773C1.41742 17.3935 1.12913 17.5136 0.840837 17.5136H0.552561C0.240248 17.5136 0 17.7539 0 18.0662V28.7809C0 29.0932 0.240248 29.3334 0.552561 29.3334H9.10511C9.41742 29.3334 9.65765 29.0932 9.65765 28.7809V28.4926C9.65765 27.892 10.1381 27.3875 10.7628 27.3875C11.0751 27.3875 11.3393 27.5076 11.5555 27.7238C11.7718 27.9401 11.8919 28.2283 11.8919 28.5166V28.8049C11.8919 29.1172 12.1321 29.3575 12.4444 29.3575H22.3423C22.6547 29.3575 22.8949 29.1172 22.8949 28.8049V28.5166C22.8949 27.916 23.3754 27.4115 24 27.4115C24.3123 27.4115 24.5766 27.5316 24.7928 27.7478C25.009 27.9641 25.1291 28.2524 25.1291 28.5406V28.8289C25.1291 29.1412 25.3694 29.3815 25.6817 29.3815H35.5796C35.8919 29.3815 36.1321 29.1412 36.1321 28.8289V28.5406C36.1321 27.94 36.6126 27.4355 37.2372 27.4355C37.5495 27.4355 37.8138 27.5556 38.03 27.7719C38.2462 27.9881 38.3664 28.2764 38.3664 28.5647V28.853C38.3664 29.1653 38.6066 29.4055 38.9189 29.4055H47.4715L47.4234 29.3334C47.7357 29.3334 47.976 29.0932 47.976 28.7809V18.0662C47.976 17.7539 47.7357 17.5136 47.4234 17.5136H47.1351C46.5345 17.5136 46.03 17.0331 46.03 16.4085C46.03 16.0962 46.1501 15.8319 46.3663 15.6157C46.5826 15.3995 46.8709 15.2794 47.1591 15.2794H47.4475C47.7598 15.2794 48 15.0391 48 14.7268V4.58869C48 4.27638 47.7598 4.03613 47.4475 4.03613H45.8878V0.576486C45.8878 0.264174 45.6475 0.0239258 45.3352 0.0239258ZM46.9189 28.3244H39.4474H39.4234C39.3754 27.8199 39.1592 27.3635 38.7988 27.0031C38.3904 26.5947 37.8378 26.3544 37.2372 26.3544C36.1081 26.3544 35.1712 27.2193 35.0511 28.3244H26.2102C26.1622 27.8199 25.9459 27.3635 25.5856 27.0031C25.1772 26.5947 24.6006 26.3544 24.024 26.3544C22.8949 26.3544 21.958 27.2193 21.8378 28.3244H12.997C12.949 27.8199 12.7327 27.3635 12.3724 27.0031C11.964 26.5947 11.4114 26.3544 10.8108 26.3544C9.68168 26.3544 8.74475 27.2193 8.62463 28.3244H1.12913V18.6908C1.63364 18.6428 2.09008 18.4265 2.45044 18.0662C2.85885 17.6578 3.0991 17.0812 3.0991 16.5046C3.0991 15.3755 2.25827 14.4385 1.15316 14.3184V5.23733H46.9429V14.3184C46.4384 14.3665 45.982 14.5827 45.6216 14.943C45.2132 15.3514 44.9729 15.904 44.9729 16.5046C44.9729 17.6337 45.8138 18.5707 46.9189 18.6908V28.3244ZM7.37676 24.3605H14.2717C14.584 24.3605 14.8242 24.1203 14.8242 23.808V22.1261H16.1686C16.4809 22.1261 16.7212 21.8859 16.7212 21.5735C16.7212 21.2612 16.4809 21.021 16.1686 21.021H14.8242V17.3214H16.1686C16.4809 17.3214 16.7212 17.0812 16.7212 16.7689C16.7212 16.4566 16.4809 16.2163 16.1686 16.2163H14.8242V12.5167H16.1686C16.4809 12.5167 16.7212 12.2765 16.7212 11.9642C16.7212 11.6519 16.4809 11.4116 16.1686 11.4116H14.8242V9.70586C14.8242 9.39355 14.584 9.15332 14.2717 9.15332H7.37676C7.06445 9.15332 6.82422 9.39355 6.82422 9.70586V11.4116H5.35725C5.04494 11.4116 4.80469 11.6519 4.80469 11.9642C4.80469 12.2765 5.04494 12.5167 5.35725 12.5167H6.82422V16.2163H5.35725C5.04494 16.2163 4.80469 16.4566 4.80469 16.7689C4.80469 17.0812 5.04494 17.3214 5.35725 17.3214H6.82422V21.021H5.35725C5.04494 21.021 4.80469 21.2612 4.80469 21.5735C4.80469 21.8859 5.04494 22.1261 5.35725 22.1261H6.82422V23.808C6.82422 24.1203 7.06445 24.3605 7.37676 24.3605ZM7.90529 21.7347V23.2794H13.7191V10.2825H7.90529V11.803C7.91998 11.8537 7.92782 11.9078 7.92782 11.9642C7.92782 12.0206 7.91998 12.0747 7.90529 12.1254V16.6077C7.91998 16.6584 7.92782 16.7125 7.92782 16.7689C7.92782 16.8253 7.91998 16.8793 7.90529 16.9301V21.4123C7.91998 21.4631 7.92782 21.5171 7.92782 21.5735C7.92782 21.63 7.91998 21.684 7.90529 21.7347ZM27.5568 24.3605H20.6619C20.3496 24.3605 20.1094 24.1203 20.1094 23.808V22.1261H18.6424C18.3301 22.1261 18.0898 21.8859 18.0898 21.5735C18.0898 21.2612 18.3301 21.021 18.6424 21.021H20.1094V17.3214H18.6424C18.3301 17.3214 18.0898 17.0812 18.0898 16.7689C18.0898 16.4566 18.3301 16.2163 18.6424 16.2163H20.1094V12.5167H18.6424C18.3301 12.5167 18.0898 12.2765 18.0898 11.9642C18.0898 11.6519 18.3301 11.4116 18.6424 11.4116H20.1094V9.70586C20.1094 9.39355 20.3496 9.15332 20.6619 9.15332H27.5568C27.8691 9.15332 28.1094 9.39355 28.1094 9.70586V11.4116H29.4538C29.7661 11.4116 30.0063 11.6519 30.0063 11.9642C30.0063 12.2765 29.7661 12.5167 29.4538 12.5167H28.1094V16.2163H29.4538C29.7661 16.2163 30.0063 16.4566 30.0063 16.7689C30.0063 17.0812 29.7661 17.3214 29.4538 17.3214H28.1094V21.021H29.4538C29.7661 21.021 30.0063 21.2612 30.0063 21.5735C30.0063 21.8859 29.7661 22.1261 29.4538 22.1261H28.1094V23.808C28.1094 24.1203 27.8691 24.3605 27.5568 24.3605ZM21.1904 23.2794V21.7347C21.2051 21.684 21.213 21.6299 21.213 21.5735C21.213 21.5171 21.2051 21.4631 21.1904 21.4123V16.9301C21.2051 16.8793 21.213 16.8253 21.213 16.7689C21.213 16.7125 21.2051 16.6584 21.1904 16.6077V12.1254C21.2051 12.0747 21.213 12.0206 21.213 11.9642C21.213 11.9078 21.2051 11.8537 21.1904 11.803V10.2825H27.0043V23.2794H21.1904ZM33.9705 24.3605H40.8654C41.1777 24.3605 41.418 24.1203 41.418 23.808V22.1261H42.7389C43.0512 22.1261 43.2915 21.8859 43.2915 21.5735C43.2915 21.2612 43.0512 21.021 42.7389 21.021H41.418V17.3214H42.7389C43.0512 17.3214 43.2915 17.0812 43.2915 16.7689C43.2915 16.4566 43.0512 16.2163 42.7389 16.2163H41.418V12.5167H42.7389C43.0512 12.5167 43.2915 12.2765 43.2915 11.9642C43.2915 11.6519 43.0512 11.4116 42.7389 11.4116H41.418V9.70586C41.418 9.39355 41.1777 9.15332 40.8654 9.15332H33.9705C33.6582 9.15332 33.418 9.39355 33.418 9.70586V11.4116H31.9276C31.6152 11.4116 31.375 11.6519 31.375 11.9642C31.375 12.2765 31.6152 12.5167 31.9276 12.5167H33.418V16.2163H31.9276C31.6152 16.2163 31.375 16.4566 31.375 16.7689C31.375 17.0812 31.6152 17.3214 31.9276 17.3214H33.418V21.021H31.9276C31.6152 21.021 31.375 21.2612 31.375 21.5735C31.375 21.8859 31.6152 22.1261 31.9276 22.1261H33.418V23.808C33.418 24.1203 33.6582 24.3605 33.9705 24.3605ZM40.3125 21.5735C40.3125 21.5666 40.3126 21.5598 40.3129 21.5529V16.7895L40.3126 16.779L40.3125 16.7689C40.3125 16.762 40.3126 16.7551 40.3129 16.7482V11.9848C40.3126 11.978 40.3125 11.9711 40.3125 11.9642C40.3125 11.9573 40.3126 11.9504 40.3129 11.9436V10.2825H34.499V23.2794H40.3129V21.5942C40.3126 21.5873 40.3125 21.5804 40.3125 21.5735Z" fill="#606060"/>
</svg>
