<svg width="62" height="10" viewBox="0 0 62 10" fill="none" xmlns="http://www.w3.org/2000/svg">
<path fill-rule="evenodd" clip-rule="evenodd" d="M5.39611 0.253519C5.32483 0.0989778 5.17018 0 5 0C4.82978 0 4.67514 0.0989778 4.60386 0.253519L3.40342 2.85609C3.37165 2.92497 3.30637 2.9724 3.23104 2.98134L0.384887 3.31879C0.215881 3.33883 0.0739582 3.45532 0.0213659 3.61719C-0.0312259 3.77905 0.0151164 3.95671 0.140068 4.07227L2.2443 6.0182C2.29999 6.06971 2.32493 6.14645 2.31015 6.22087L1.75157 9.03198C1.71841 9.19893 1.78535 9.36989 1.92303 9.46992C2.06072 9.56995 2.24402 9.58077 2.39252 9.49766L4.89348 8.09774C4.95965 8.0607 5.04036 8.0607 5.10653 8.09774L7.60748 9.49766C7.75598 9.58077 7.93928 9.56995 8.07696 9.46992C8.21463 9.36989 8.2816 9.19893 8.2484 9.03198L7.68984 6.22087C7.67505 6.14645 7.70001 6.06971 7.75571 6.0182L9.85995 4.07227C9.98489 3.95671 10.0312 3.77905 9.97865 3.61719C9.92604 3.45532 9.78413 3.33883 9.61509 3.31879L6.76895 2.98134C6.69361 2.9724 6.62835 2.92497 6.59659 2.85609L5.39611 0.253519Z" fill="#FFD234"/>
<path fill-rule="evenodd" clip-rule="evenodd" d="M31.3961 0.253519C31.3248 0.0989778 31.1702 0 31 0C30.8298 0 30.6751 0.0989778 30.6039 0.253519L29.4034 2.85609C29.3716 2.92497 29.3064 2.9724 29.231 2.98134L26.3849 3.31879C26.2159 3.33883 26.074 3.45532 26.0214 3.61719C25.9688 3.77905 26.0151 3.95671 26.1401 4.07227L28.2443 6.0182C28.3 6.06971 28.3249 6.14645 28.3101 6.22087L27.7516 9.03198C27.7184 9.19893 27.7853 9.36989 27.923 9.46992C28.0607 9.56995 28.244 9.58077 28.3925 9.49766L30.8935 8.09774C30.9597 8.0607 31.0404 8.0607 31.1065 8.09774L33.6075 9.49766C33.756 9.58077 33.9393 9.56995 34.077 9.46992C34.2146 9.36989 34.2816 9.19893 34.2484 9.03198L33.6898 6.22087C33.6751 6.14645 33.7 6.06971 33.7557 6.0182L35.8599 4.07227C35.9849 3.95671 36.0312 3.77905 35.9786 3.61719C35.926 3.45532 35.7841 3.33883 35.6151 3.31879L32.7689 2.98134C32.6936 2.9724 32.6283 2.92497 32.5966 2.85609L31.3961 0.253519Z" fill="#FFD234"/>
<path fill-rule="evenodd" clip-rule="evenodd" d="M18.3961 0.253519C18.3248 0.0989778 18.1702 0 18 0C17.8298 0 17.6751 0.0989778 17.6039 0.253519L16.4034 2.85609C16.3716 2.92497 16.3064 2.9724 16.231 2.98134L13.3849 3.31879C13.2159 3.33883 13.074 3.45532 13.0214 3.61719C12.9688 3.77905 13.0151 3.95671 13.1401 4.07227L15.2443 6.0182C15.3 6.06971 15.3249 6.14645 15.3101 6.22087L14.7516 9.03198C14.7184 9.19893 14.7853 9.36989 14.923 9.46992C15.0607 9.56995 15.244 9.58077 15.3925 9.49766L17.8935 8.09774C17.9597 8.0607 18.0404 8.0607 18.1065 8.09774L20.6075 9.49766C20.756 9.58077 20.9393 9.56995 21.077 9.46992C21.2146 9.36989 21.2816 9.19893 21.2484 9.03198L20.6898 6.22087C20.6751 6.14645 20.7 6.06971 20.7557 6.0182L22.8599 4.07227C22.9849 3.95671 23.0312 3.77905 22.9786 3.61719C22.926 3.45532 22.7841 3.33883 22.6151 3.31879L19.7689 2.98134C19.6936 2.9724 19.6283 2.92497 19.5966 2.85609L18.3961 0.253519Z" fill="#FFD234"/>
<path fill-rule="evenodd" clip-rule="evenodd" d="M44.3961 0.253519C44.3248 0.0989778 44.1702 0 44 0C43.8298 0 43.6751 0.0989778 43.6039 0.253519L42.4034 2.85609C42.3716 2.92497 42.3064 2.9724 42.231 2.98134L39.3849 3.31879C39.2159 3.33883 39.074 3.45532 39.0214 3.61719C38.9688 3.77905 39.0151 3.95671 39.1401 4.07227L41.2443 6.0182C41.3 6.06971 41.3249 6.14645 41.3101 6.22087L40.7516 9.03198C40.7184 9.19893 40.7853 9.36989 40.923 9.46992C41.0607 9.56995 41.244 9.58077 41.3925 9.49766L43.8935 8.09774C43.9597 8.0607 44.0404 8.0607 44.1065 8.09774L46.6075 9.49766C46.756 9.58077 46.9393 9.56995 47.077 9.46992C47.2146 9.36989 47.2816 9.19893 47.2484 9.03198L46.6898 6.22087C46.6751 6.14645 46.7 6.06971 46.7557 6.0182L48.8599 4.07227C48.9849 3.95671 49.0312 3.77905 48.9786 3.61719C48.926 3.45532 48.7841 3.33883 48.6151 3.31879L45.7689 2.98134C45.6936 2.9724 45.6283 2.92497 45.5966 2.85609L44.3961 0.253519Z" fill="#FFD234"/>
<path fill-rule="evenodd" clip-rule="evenodd" d="M57.3961 0.253519C57.3248 0.0989778 57.1702 0 57 0C56.8298 0 56.6751 0.0989778 56.6039 0.253519L55.4034 2.85609C55.3716 2.92497 55.3064 2.9724 55.231 2.98134L52.3849 3.31879C52.2159 3.33883 52.074 3.45532 52.0214 3.61719C51.9688 3.77905 52.0151 3.95671 52.1401 4.07227L54.2443 6.0182C54.3 6.06971 54.3249 6.14645 54.3101 6.22087L53.7516 9.03198C53.7184 9.19893 53.7853 9.36989 53.923 9.46992C54.0607 9.56995 54.244 9.58077 54.3925 9.49766L56.8935 8.09774C56.9597 8.0607 57.0404 8.0607 57.1065 8.09774L59.6075 9.49766C59.756 9.58077 59.9393 9.56995 60.077 9.46992C60.2146 9.36989 60.2816 9.19893 60.2484 9.03198L59.6898 6.22087C59.6751 6.14645 59.7 6.06971 59.7557 6.0182L61.8599 4.07227C61.9849 3.95671 62.0312 3.77905 61.9786 3.61719C61.926 3.45532 61.7841 3.33883 61.6151 3.31879L58.7689 2.98134C58.6936 2.9724 58.6283 2.92497 58.5966 2.85609L57.3961 0.253519Z" fill="#FFD234"/>
</svg>
