<svg width="48" height="34" viewBox="0 0 48 34" fill="none" xmlns="http://www.w3.org/2000/svg">
<path fill-rule="evenodd" clip-rule="evenodd" d="M5.26562 4.95144H2.21136C1.89889 4.95144 1.6585 4.71109 1.6585 4.39862C1.6585 4.08615 1.89889 3.84578 2.21136 3.84578H5.28798V1.10566H0.552857C0.240388 1.10566 0 0.865309 0 0.552839C0 0.240369 0.240388 0 0.552857 0H5.8408C6.15327 0 6.39362 0.240369 6.39362 0.552839V3.84546H47.449C47.7615 3.84546 48.0019 4.08583 48.0019 4.3983V27.3047C48.0019 27.6172 47.7615 27.8576 47.449 27.8576H41.6053V33.0975C41.6053 33.41 41.3649 33.6503 41.0524 33.6503H36.8354L36.8224 33.6505L36.8093 33.6503H33.4487L33.4356 33.6505L33.4225 33.6503H30.0347L30.0216 33.6505L30.0085 33.6503H26.644L26.6309 33.6505L26.6179 33.6503H23.2534L23.2404 33.6505L23.2273 33.6503H19.8667L19.8536 33.6505L19.8405 33.6503H16.48L16.4669 33.6505L16.4538 33.6503H12.2091C11.8966 33.6503 11.6562 33.41 11.6562 33.0975V27.8576H5.81848C5.50601 27.8576 5.26562 27.6172 5.26562 27.3047V22.882H2.20911C1.89664 22.882 1.65625 22.6416 1.65625 22.3292V18.7237C1.65625 18.4113 1.89664 18.1709 2.20911 18.1709H5.26562V13.484H2.20911C1.89664 13.484 1.65625 13.2437 1.65625 12.9312V9.32577C1.65625 9.0133 1.89664 8.77295 2.20911 8.77295H5.26562V4.95144ZM40.4996 32.5687H37.3752V31.1026C37.3752 30.7902 37.1348 30.5498 36.8224 30.5498C36.5099 30.5498 36.2695 30.7902 36.2695 31.1026V32.5687H33.9885V31.1026C33.9885 30.7902 33.7481 30.5498 33.4356 30.5498C33.1232 30.5498 32.8828 30.7902 32.8828 31.1026V32.5687H30.5744V31.1026C30.5744 30.7902 30.334 30.5498 30.0216 30.5498C29.7091 30.5498 29.4688 30.7902 29.4688 31.1026V32.5687H27.1838V31.1026C27.1838 30.7902 26.9434 30.5498 26.6309 30.5498C26.3185 30.5498 26.0781 30.7902 26.0781 31.1026V32.5687H23.7932V31.1026C23.7932 30.7902 23.5528 30.5498 23.2404 30.5498C22.9279 30.5498 22.6875 30.7902 22.6875 31.1026V32.5687H20.4064V31.1026C20.4064 30.7902 20.1661 30.5498 19.8536 30.5498C19.5411 30.5498 19.3008 30.7902 19.3008 31.1026V32.5687H17.0197V31.1026C17.0197 30.7902 16.7794 30.5498 16.4669 30.5498C16.1544 30.5498 15.9141 30.7902 15.9141 31.1026V32.5687H12.7619V27.8817H40.4996V32.5687ZM12.0429 26.7759H6.3713V21.0794H21.5099L27.1825 26.752H12.2091C12.1508 26.752 12.095 26.7603 12.0429 26.7759ZM22.2826 20.3137L28.7208 26.752H41.0524C41.1107 26.752 41.1665 26.7603 41.2186 26.7759H46.9202V4.95112H28.7455L22.2826 11.4141V20.3137ZM21.5106 10.6477H6.3713V4.95112H27.2072L21.5106 10.6477ZM6.3713 11.7534H21.1769V19.9978H6.3713V11.7534ZM35.9583 24.8531C32.5367 24.8531 29.5513 22.9248 28.0331 20.0995C28.0224 20.0817 28.0126 20.0634 28.0038 20.0445C27.3432 18.7944 26.9688 17.3713 26.9688 15.8635C26.9688 12.4902 28.843 9.54085 31.6034 8.00346C31.6207 7.99165 31.6388 7.98082 31.6576 7.97103C31.7105 7.92999 31.7704 7.89841 31.8343 7.87922C33.0706 7.23718 34.4734 6.87402 35.9583 6.87402C40.9097 6.87402 44.9478 10.9121 44.9478 15.8635C44.9478 16.723 44.8261 17.555 44.5991 18.3431C44.5977 18.4528 44.5654 18.5623 44.5036 18.6534C43.7797 20.8606 42.2216 22.6957 40.205 23.7829C40.1875 23.7935 40.1694 23.8032 40.1507 23.8119C38.8978 24.4763 37.4706 24.8531 35.9583 24.8531ZM32.1507 8.96587C32.8939 9.07605 33.6033 9.42285 34.1314 9.95096C34.9718 10.7914 35.3239 11.9982 35.0751 13.1406C34.7223 13.254 34.4 13.4336 34.1227 13.665C33.2831 12.5636 31.9644 11.8978 30.5261 11.8978C30.0002 11.8978 29.4851 11.9849 29.0016 12.1537C29.714 10.8219 30.7977 9.71795 32.1139 8.98054C32.1264 8.97607 32.1386 8.97118 32.1507 8.96587ZM34.9005 9.18181C34.5453 8.82656 34.1336 8.53284 33.6869 8.31249C34.4063 8.09603 35.1688 7.97968 35.9583 7.97968C36.7162 7.97968 37.4493 8.08691 38.1432 8.28701C38.6202 8.89155 38.8684 9.64952 38.8684 10.4075C38.8684 11.5868 38.271 12.6837 37.267 13.3168C36.9415 13.1501 36.5794 13.0439 36.1952 13.0127C36.387 11.6217 35.9211 10.2024 34.9005 9.18181ZM32.2192 22.8044C30.8893 22.0858 29.7888 20.9962 29.0568 19.6747C29.1624 18.9214 29.5112 18.2009 30.0459 17.6662C30.8843 16.8278 32.0871 16.4755 33.2269 16.7206C33.3372 17.0751 33.5141 17.3995 33.7433 17.6792C32.6375 18.5329 31.9688 19.8543 31.9688 21.2957C31.9688 21.816 32.0539 22.3255 32.2192 22.8044ZM29.2768 16.897C28.919 17.2548 28.6237 17.6697 28.4028 18.1201C28.1892 17.4051 28.0744 16.6476 28.0744 15.8635C28.0744 15.1268 28.1757 14.4136 28.3652 13.737C28.974 13.2388 29.7284 12.9795 30.5261 12.9795C31.6926 12.9795 32.7784 13.5638 33.4146 14.5481C33.2494 14.8685 33.143 15.2246 33.1092 15.6026C31.7177 15.4102 30.2977 15.876 29.2768 16.897ZM34.4614 14.9507C34.5014 14.9078 34.5335 14.8597 34.5572 14.8083C34.8747 14.3826 35.379 14.1088 35.958 14.1088C36.7682 14.1088 37.4485 14.645 37.6648 15.3834C37.6493 15.4972 37.6732 15.6076 37.7272 15.7025C37.7335 15.7633 37.7366 15.825 37.7366 15.8875C37.7366 16.2224 37.6422 16.5352 37.4799 16.8021C37.441 16.844 37.4097 16.8909 37.3863 16.9408C37.1543 17.2527 36.8236 17.4865 36.4458 17.5965C36.3297 17.5794 36.2169 17.6033 36.1202 17.6586C36.0667 17.6636 36.0126 17.6662 35.958 17.6662C35.6519 17.6662 35.363 17.5858 35.1112 17.4445C35.0317 17.3199 34.9131 17.239 34.7832 17.207C34.428 16.882 34.2033 16.412 34.2033 15.8875C34.2033 15.5432 34.2972 15.2224 34.4614 14.9507ZM42.8876 19.6241C42.1688 20.9445 41.0835 22.0372 39.7689 22.7653C39.0164 22.6594 38.2966 22.3107 37.7623 21.7765C36.9236 20.9377 36.5713 19.7342 36.8171 18.5938C37.1812 18.4804 37.5134 18.2965 37.798 18.0579C38.6365 19.1764 39.9656 19.8538 41.4162 19.8538H41.4403C41.9383 19.8538 42.4266 19.7757 42.8876 19.6241ZM34.6299 18.4003C34.9541 18.5694 35.3153 18.6783 35.6989 18.7123C35.5062 20.1042 35.972 21.5244 36.9932 22.5456C37.3506 22.903 37.7651 23.1982 38.215 23.419C37.4999 23.6326 36.7424 23.7474 35.9583 23.7474C35.2103 23.7474 34.4865 23.6429 33.8007 23.4479C33.3072 22.8406 33.0504 22.0896 33.0504 21.2957C33.0504 20.125 33.6391 19.0355 34.6299 18.4003ZM43.5278 18.0726C43.7324 17.3716 43.8421 16.6302 43.8421 15.8635C43.8421 15.0679 43.7239 14.2996 43.5042 13.5752C43.2817 14.038 42.9809 14.4641 42.6147 14.8303C41.7494 15.6956 40.5957 16.1523 39.3939 16.1523L39.4179 16.1763C39.2139 16.1763 39.0099 16.1619 38.8059 16.1331C38.7724 16.4958 38.6719 16.8384 38.5168 17.1483C39.1477 18.1659 40.2522 18.7721 41.4403 18.7721C42.1845 18.7721 42.9288 18.5329 43.5278 18.0726ZM39.71 8.92947C41.022 9.64154 42.1099 10.7151 42.8396 12.0161C42.7403 12.7826 42.3889 13.5178 41.8456 14.0611C41.0136 14.893 39.8228 15.2464 38.6908 15.0122C38.5778 14.646 38.3936 14.3118 38.1542 14.0256C39.2727 13.1871 39.95 11.8581 39.95 10.4075C39.95 9.89835 39.8684 9.39943 39.71 8.92947ZM5.26167 12.4024H2.73787V9.87861H5.26167V12.4024ZM2.73787 21.8004H5.26167V19.2766H2.73787V21.8004ZM10.8906 17.955H9.61532C9.30285 17.955 9.0625 17.7146 9.0625 17.4021V14.3015C9.0625 13.989 9.30285 13.7487 9.61532 13.7487H10.8906V13.3878C10.8906 13.0753 11.131 12.835 11.4434 12.835C11.7559 12.835 11.9963 13.0753 11.9963 13.3878V13.7487H13.2188V13.3878C13.2188 13.0753 13.4591 12.835 13.7716 12.835C14.0841 12.835 14.3244 13.0753 14.3244 13.3878V13.7487H15.5508V13.3878C15.5508 13.0753 15.7912 12.835 16.1036 12.835C16.4161 12.835 16.6565 13.0753 16.6565 13.3878V13.7487H17.9318C18.2443 13.7487 18.4847 13.989 18.4847 14.3015V17.4021C18.4847 17.7146 18.2443 17.955 17.9318 17.955H16.6565V18.3396C16.6565 18.6521 16.4161 18.8924 16.1036 18.8924C15.7912 18.8924 15.5508 18.6521 15.5508 18.3396V17.955H14.3244V18.3396C14.3244 18.6521 14.0841 18.8924 13.7716 18.8924C13.4591 18.8924 13.2188 18.6521 13.2188 18.3396V17.955H11.9963V18.3396C11.9963 18.6521 11.7559 18.8924 11.4434 18.8924C11.131 18.8924 10.8906 18.6521 10.8906 18.3396V17.955ZM15.9375 16.8733H13.9378C13.8856 16.8577 13.8299 16.8494 13.7716 16.8494C13.7133 16.8494 13.6576 16.8577 13.6054 16.8733H11.6096C11.5575 16.8577 11.5017 16.8494 11.4434 16.8494C11.3852 16.8494 11.3294 16.8577 11.2773 16.8733H10.1441V14.8784H17.379V16.8733H16.2698C16.2177 16.8577 16.1619 16.8494 16.1036 16.8494C16.0454 16.8494 15.9896 16.8577 15.9375 16.8733Z" fill="url(#paint0_linear_73_286)"/>
<defs>
<linearGradient id="paint0_linear_73_286" x1="-1.16368" y1="-60.9074" x2="58.9576" y2="-52.4204" gradientUnits="userSpaceOnUse">
<stop stop-color="#E035CF"/>
<stop offset="1" stop-color="#001BF3"/>
</linearGradient>
</defs>
</svg>
