<svg width="48" height="34" viewBox="0 0 48 34" fill="none" xmlns="http://www.w3.org/2000/svg">
<path fill-rule="evenodd" clip-rule="evenodd" d="M5.26562 4.95144H2.21136C1.89889 4.95144 1.6585 4.71109 1.6585 4.39862C1.6585 4.08615 1.89889 3.84578 2.21136 3.84578H5.28798V1.10566H0.552857C0.240388 1.10566 0 0.865309 0 0.552839C0 0.240369 0.240388 0 0.552857 0H5.8408C6.15327 0 6.39362 0.240369 6.39362 0.552839V3.8457H47.449C47.7615 3.8457 48.0019 4.08607 48.0019 4.39854V27.3049C48.0019 27.6174 47.7615 27.8578 47.449 27.8578H41.6053V33.0975C41.6053 33.41 41.3649 33.6503 41.0524 33.6503H36.8354L36.8224 33.6505L36.8093 33.6503H33.4487L33.4356 33.6505L33.4225 33.6503H30.0347L30.0216 33.6505L30.0085 33.6503H26.644L26.6309 33.6505L26.6179 33.6503H23.2534L23.2404 33.6505L23.2273 33.6503H19.8667L19.8536 33.6505L19.8405 33.6503H16.48L16.4669 33.6505L16.4538 33.6503H12.2091C11.8966 33.6503 11.6562 33.41 11.6562 33.0975V27.8578H5.81848C5.50601 27.8578 5.26562 27.6174 5.26562 27.3049V22.882H2.20911C1.89664 22.882 1.65625 22.6416 1.65625 22.3292V18.7237C1.65625 18.4113 1.89664 18.1709 2.20911 18.1709H5.26562V13.484H2.20911C1.89664 13.484 1.65625 13.2437 1.65625 12.9312V9.32577C1.65625 9.0133 1.89664 8.77295 2.20911 8.77295H5.26562V4.95144ZM40.4996 32.5687H37.3752V31.1026C37.3752 30.7902 37.1348 30.5498 36.8224 30.5498C36.5099 30.5498 36.2695 30.7902 36.2695 31.1026V32.5687H33.9885V31.1026C33.9885 30.7902 33.7481 30.5498 33.4356 30.5498C33.1232 30.5498 32.8828 30.7902 32.8828 31.1026V32.5687H30.5744V31.1026C30.5744 30.7902 30.334 30.5498 30.0216 30.5498C29.7091 30.5498 29.4688 30.7902 29.4688 31.1026V32.5687H27.1838V31.1026C27.1838 30.7902 26.9434 30.5498 26.6309 30.5498C26.3185 30.5498 26.0781 30.7902 26.0781 31.1026V32.5687H23.7932V31.1026C23.7932 30.7902 23.5528 30.5498 23.2404 30.5498C22.9279 30.5498 22.6875 30.7902 22.6875 31.1026V32.5687H20.4064V31.1026C20.4064 30.7902 20.1661 30.5498 19.8536 30.5498C19.5411 30.5498 19.3008 30.7902 19.3008 31.1026V32.5687H17.0197V31.1026C17.0197 30.7902 16.7794 30.5498 16.4669 30.5498C16.1544 30.5498 15.9141 30.7902 15.9141 31.1026V32.5687H12.7619V27.8817H40.4996V32.5687ZM12.042 26.7762H6.3713V21.0791H21.5097L27.1825 26.752H12.2091C12.1505 26.752 12.0944 26.7604 12.042 26.7762ZM22.2826 20.3137L28.7208 26.752H41.0524C41.111 26.752 41.1671 26.7604 41.2195 26.7762H46.9202V4.95136H28.7453L22.2826 11.4141V20.3137ZM21.5109 10.6475H6.3713V4.95136H27.207L21.5109 10.6475ZM6.3713 11.7531H21.1769V19.9975H6.3713V11.7531ZM35.9583 24.8531C32.5367 24.8531 29.5513 22.9248 28.0331 20.0995C28.0224 20.0817 28.0126 20.0634 28.0038 20.0445C27.3432 18.7944 26.9688 17.3713 26.9688 15.8635C26.9688 12.4894 28.8439 9.53942 31.6054 8.00234C31.6221 7.99106 31.6395 7.98068 31.6576 7.97127C31.7102 7.93047 31.7697 7.89902 31.8332 7.8798C33.0698 7.2374 34.4729 6.87402 35.9583 6.87402C40.9097 6.87402 44.9478 10.9121 44.9478 15.8635C44.9478 16.723 44.8261 17.555 44.5991 18.3431C44.5977 18.4528 44.5654 18.5623 44.5036 18.6534C43.7792 20.8621 42.2195 22.6982 40.201 23.785C40.1861 23.7939 40.1707 23.8021 40.155 23.8097C38.901 24.4755 37.4724 24.8531 35.9583 24.8531ZM32.1507 8.96612C32.8938 9.07629 33.6033 9.4231 34.1314 9.95121C34.9717 10.7915 35.3238 11.9981 35.0752 13.1403C34.7224 13.2537 34.4 13.4334 34.1225 13.6649C33.283 12.5636 31.9643 11.8978 30.5261 11.8978C30.0002 11.8978 29.4851 11.9849 29.0016 12.1537C29.7138 10.8224 30.797 9.71863 32.1127 8.98123C32.1256 8.97664 32.1383 8.9716 32.1507 8.96612ZM34.9005 9.18205C34.5452 8.82672 34.1334 8.53295 33.6866 8.31258C34.4061 8.09606 35.1687 7.97968 35.9583 7.97968C36.7162 7.97968 37.4493 8.08691 38.1432 8.28701C38.6202 8.89155 38.8684 9.64952 38.8684 10.4075C38.8684 11.5867 38.2711 12.6835 37.2672 13.3167C36.9417 13.1499 36.5795 13.0437 36.1953 13.0125C36.3869 11.6216 35.921 10.2025 34.9005 9.18205ZM32.2192 22.8044C30.8893 22.0858 29.7888 20.9962 29.0568 19.6747C29.1624 18.9214 29.5112 18.2009 30.0459 17.6662C30.8843 16.8278 32.0872 16.4755 33.227 16.7206C33.3373 17.0751 33.5142 17.3994 33.7434 17.6791C32.6376 18.5328 31.9688 19.8543 31.9688 21.2957C31.9688 21.816 32.0539 22.3255 32.2192 22.8044ZM29.2768 16.897C28.919 17.2548 28.6237 17.6697 28.4028 18.1201C28.1892 17.4051 28.0744 16.6476 28.0744 15.8635C28.0744 15.1268 28.1757 14.4136 28.3652 13.737C28.974 13.2388 29.7284 12.9795 30.5261 12.9795C31.6925 12.9795 32.7783 13.5638 33.4145 14.548C33.2494 14.8684 33.143 15.2246 33.1092 15.6026C31.7177 15.4102 30.2977 15.876 29.2768 16.897ZM34.4609 14.9512C34.5014 14.908 34.5337 14.8595 34.5575 14.8076C34.875 14.3822 35.3792 14.1086 35.958 14.1086C36.7682 14.1086 37.4485 14.6448 37.6648 15.3832C37.6493 15.497 37.6732 15.6074 37.7272 15.7022C37.7335 15.763 37.7366 15.8248 37.7366 15.8873C37.7366 16.2225 37.6421 16.5355 37.4794 16.8026C37.4409 16.8441 37.4098 16.8906 37.3866 16.9402C37.1546 17.2522 36.8238 17.4862 36.4458 17.5963C36.3297 17.5792 36.2169 17.6031 36.1202 17.6584C36.0667 17.6634 36.0126 17.6659 35.958 17.6659C35.6518 17.6659 35.3628 17.5855 35.111 17.4441C35.0316 17.3198 34.9132 17.2392 34.7835 17.2071C34.4282 16.8821 34.2033 16.4119 34.2033 15.8873C34.2033 15.5433 34.297 15.2228 34.4609 14.9512ZM42.8876 19.6241C42.1688 20.9444 41.0837 22.037 39.7693 22.7651C39.0166 22.6593 38.2967 22.3105 37.7623 21.7762C36.9236 20.9375 36.5713 19.7339 36.8171 18.5936C37.1811 18.4801 37.5133 18.2963 37.7979 18.0577C38.6363 19.1763 39.9655 19.8538 41.4162 19.8538H41.4403C41.9383 19.8538 42.4266 19.7757 42.8876 19.6241ZM34.6301 18.4001C34.9543 18.5692 35.3154 18.6781 35.6989 18.7121C35.5062 20.1039 35.972 21.5242 36.9932 22.5454C37.3507 22.9029 37.7653 23.1981 38.2153 23.4189C37.5001 23.6326 36.7425 23.7474 35.9583 23.7474C35.2103 23.7474 34.4865 23.6429 33.8007 23.4479C33.3072 22.8406 33.0504 22.0896 33.0504 21.2957C33.0504 20.1249 33.6392 19.0353 34.6301 18.4001ZM43.5278 18.0726C43.7324 17.3716 43.8421 16.6302 43.8421 15.8635C43.8421 15.0678 43.7239 14.2995 43.5042 13.5751C43.2817 14.0378 42.9809 14.4639 42.6147 14.83C41.7494 15.6953 40.5957 16.152 39.3939 16.152L39.4179 16.1761C39.2139 16.1761 39.0099 16.1617 38.8059 16.1329C38.7724 16.4957 38.6719 16.8382 38.5168 17.1482C39.1476 18.1658 40.2521 18.7721 41.4403 18.7721C42.1845 18.7721 42.9288 18.5329 43.5278 18.0726ZM39.71 8.92947C41.022 9.64153 42.1099 10.7151 42.8396 12.0161C42.7402 12.7825 42.3888 13.5176 41.8456 14.0609C41.0136 14.8928 39.8228 15.2461 38.6908 15.012C38.5778 14.6458 38.3937 14.3116 38.1543 14.0255C39.2727 13.187 39.95 11.858 39.95 10.4075C39.95 9.89835 39.8684 9.39943 39.71 8.92947ZM5.26167 12.4024H2.73787V9.87861H5.26167V12.4024ZM2.73787 21.8004H5.26167V19.2766H2.73787V21.8004ZM10.8906 17.955H9.61532C9.30285 17.955 9.0625 17.7146 9.0625 17.4021V14.3015C9.0625 13.989 9.30285 13.7487 9.61532 13.7487H10.8906V13.3878C10.8906 13.0753 11.131 12.835 11.4434 12.835C11.7559 12.835 11.9963 13.0753 11.9963 13.3878V13.7487H13.2188V13.3878C13.2188 13.0753 13.4591 12.835 13.7716 12.835C14.0841 12.835 14.3244 13.0753 14.3244 13.3878V13.7487H15.5508V13.3878C15.5508 13.0753 15.7912 12.835 16.1036 12.835C16.4161 12.835 16.6565 13.0753 16.6565 13.3878V13.7487H17.9318C18.2443 13.7487 18.4847 13.989 18.4847 14.3015V17.4021C18.4847 17.7146 18.2443 17.955 17.9318 17.955H16.6565V18.3398C16.6565 18.6523 16.4161 18.8927 16.1036 18.8927C15.7912 18.8927 15.5508 18.6523 15.5508 18.3398V17.955H14.3244V18.3398C14.3244 18.6523 14.0841 18.8927 13.7716 18.8927C13.4591 18.8927 13.2188 18.6523 13.2188 18.3398V17.955H11.9963V18.3398C11.9963 18.6523 11.7559 18.8927 11.4434 18.8927C11.131 18.8927 10.8906 18.6523 10.8906 18.3398V17.955ZM15.9383 16.8733H13.937C13.885 16.8579 13.8296 16.8496 13.7716 16.8496C13.7136 16.8496 13.6582 16.8579 13.6062 16.8733H11.6088C11.5569 16.8579 11.5014 16.8496 11.4434 16.8496C11.3855 16.8496 11.33 16.8579 11.2781 16.8733H10.1441V14.8784H17.379V16.8733H16.269C16.2171 16.8579 16.1616 16.8496 16.1036 16.8496C16.0457 16.8496 15.9902 16.8579 15.9383 16.8733Z" fill="white"/>
</svg>
