<svg width="16" height="11" viewBox="0 0 16 11" fill="none" xmlns="http://www.w3.org/2000/svg">
<path d="M7.69206 8.21432C8.51795 8.21432 9.21926 7.92526 9.79601 7.34713C10.3728 6.76902 10.6611 6.06701 10.6611 5.24112C10.6611 4.41524 10.3721 3.71392 9.79395 3.13717C9.21584 2.56042 8.51383 2.27205 7.68794 2.27205C6.86206 2.27205 6.16074 2.56111 5.58399 3.13923C5.00724 3.71735 4.71886 4.41935 4.71886 5.24524C4.71886 6.07113 5.00793 6.77244 5.58605 7.34919C6.16417 7.92594 6.86617 8.21432 7.69206 8.21432ZM7.68589 7.20064C7.14101 7.20064 6.67923 7.00993 6.30056 6.62852C5.92188 6.24709 5.73255 5.78395 5.73255 5.23908C5.73255 4.69419 5.92325 4.23241 6.30466 3.85374C6.68609 3.47506 7.14924 3.28573 7.69411 3.28573C8.23899 3.28573 8.70077 3.47643 9.07944 3.85785C9.45812 4.23927 9.64746 4.70242 9.64746 5.24729C9.64746 5.79217 9.45675 6.25395 9.07534 6.63263C8.69391 7.0113 8.23077 7.20064 7.68589 7.20064ZM7.69 10.4864C5.98888 10.4864 4.45088 10.0028 3.076 9.03575C1.70112 8.06867 0.675788 6.80449 0 5.24318C0.675788 3.68188 1.70112 2.41769 3.076 1.45061C4.45088 0.483538 5.98888 0 7.69 0C9.39112 0 10.9291 0.483538 12.304 1.45061C13.6789 2.41769 14.7042 3.68188 15.38 5.24318C14.7042 6.80449 13.6789 8.06867 12.304 9.03575C10.9291 10.0028 9.39112 10.4864 7.69 10.4864ZM7.68705 9.43773C9.09885 9.43773 10.3961 9.05614 11.5787 8.29297C12.7613 7.52979 13.6614 6.5132 14.2789 5.24318C13.6614 3.97317 12.7623 2.95657 11.5816 2.1934C10.401 1.43022 9.10475 1.04864 7.69295 1.04864C6.28115 1.04864 4.98394 1.43022 3.80131 2.1934C2.61868 2.95657 1.71277 3.97317 1.08359 5.24318C1.71277 6.5132 2.61769 7.52979 3.79835 8.29297C4.97902 9.05614 6.27526 9.43773 7.68705 9.43773Z" fill="#D4D4F0"/>
</svg>
