<svg width="16" height="14" viewBox="0 0 16 14" fill="none" xmlns="http://www.w3.org/2000/svg">
<path d="M10.2946 7.79526L9.52559 7.02622C9.82855 6.19892 9.67124 5.51144 9.05368 4.9638C8.43612 4.41615 7.76613 4.27632 7.0437 4.54432L6.27466 3.77528C6.47274 3.64711 6.69413 3.55389 6.93883 3.49563C7.18352 3.43737 7.43404 3.40824 7.69039 3.40824C8.51769 3.40824 9.21973 3.69663 9.7965 4.27341C10.3733 4.85019 10.6617 5.55223 10.6617 6.37953C10.6617 6.63587 10.6296 6.8893 10.5655 7.13982C10.5015 7.39035 10.4112 7.60882 10.2946 7.79526ZM12.5493 10.0499L11.8502 9.35081C12.4211 8.93134 12.9193 8.46234 13.3446 7.94382C13.7699 7.4253 14.0816 6.90387 14.2797 6.37953C13.697 5.08614 12.8231 4.06367 11.6579 3.31211C10.4927 2.56055 9.22847 2.18477 7.86517 2.18477C7.37578 2.18477 6.87474 2.23138 6.36205 2.32459C5.84936 2.41781 5.44736 2.52851 5.15605 2.65668L4.35206 1.83521C4.75988 1.64877 5.28131 1.48564 5.91635 1.34582C6.55139 1.20599 7.17187 1.13608 7.77778 1.13608C9.44403 1.13608 10.9675 1.6109 12.3483 2.56055C13.7291 3.5102 14.7399 4.78319 15.3808 6.37953C15.0778 7.12526 14.6875 7.80691 14.2097 8.42447C13.732 9.04203 13.1785 9.58385 12.5493 10.0499ZM13.563 14L10.6267 11.1161C10.2189 11.2792 9.75864 11.4045 9.24594 11.4919C8.73325 11.5793 8.21473 11.623 7.69039 11.623C5.98918 11.623 4.44528 11.1481 3.05868 10.1985C1.67208 9.24886 0.652518 7.97586 0 6.37953C0.233042 5.77362 0.556388 5.18227 0.970038 4.60549C1.38369 4.02871 1.88764 3.47815 2.4819 2.95381L0.27965 0.751561L1.01373 0L14.2447 13.231L13.563 14ZM3.1985 3.68789C2.76737 4.0025 2.35081 4.41615 1.94881 4.92884C1.54682 5.44153 1.25843 5.92509 1.08365 6.37953C1.6779 7.67291 2.5722 8.69538 3.76654 9.44694C4.96088 10.1985 6.31544 10.5743 7.83021 10.5743C8.21473 10.5743 8.59342 10.551 8.96629 10.5044C9.33916 10.4578 9.61881 10.3878 9.80524 10.2946L8.68664 9.17603C8.55847 9.23429 8.40117 9.27799 8.21473 9.30712C8.0283 9.33625 7.85352 9.35081 7.69039 9.35081C6.87474 9.35081 6.17561 9.06534 5.59301 8.49438C5.0104 7.92343 4.7191 7.21848 4.7191 6.37953C4.7191 6.20474 4.73367 6.02996 4.7628 5.85518C4.79193 5.6804 4.83562 5.5231 4.89388 5.38327L3.1985 3.68789Z" fill="#4A4A6A"/>
</svg>
